<svg id="svg2" xmlns="http://www.w3.org/2000/svg" xmlns:xlink="http://www.w3.org/1999/xlink"
  viewBox="0, 0, 400,325.5813953488372">
  <g id= "svg3">
    <path id="path1"
      d="M357.348 0.274 C 357.273 0.349,355.711 0.456,353.877 0.510 C 352.043 0.565,349.147 0.686,347.442 0.780 C 345.736 0.873,343.016 1.009,341.395 1.082 C 333.909 1.419,330.523 1.583,328.372 1.715 C 327.093 1.793,324.581 1.926,322.791 2.010 C 321.000 2.095,318.000 2.238,316.124 2.328 C 314.248 2.418,311.388 2.549,309.767 2.619 C 308.147 2.688,305.217 2.830,303.256 2.934 C 297.474 3.240,293.995 3.415,290.698 3.566 C 288.992 3.644,286.202 3.785,284.496 3.879 C 282.791 3.973,280.070 4.110,278.450 4.183 C 270.963 4.519,267.577 4.684,265.426 4.815 C 264.147 4.893,261.636 5.026,259.845 5.111 C 258.054 5.196,255.054 5.338,253.178 5.427 C 251.302 5.516,248.372 5.653,246.667 5.730 C 244.961 5.807,242.171 5.945,240.465 6.036 C 236.451 6.251,231.607 6.494,227.907 6.667 C 226.287 6.743,223.636 6.876,222.016 6.963 C 218.654 7.144,213.298 7.405,208.992 7.598 C 205.659 7.748,201.099 7.981,197.209 8.202 C 195.760 8.284,192.829 8.429,190.698 8.525 C 182.276 8.901,180.506 8.985,177.519 9.150 C 175.814 9.244,173.093 9.381,171.473 9.454 C 163.987 9.791,160.600 9.955,158.450 10.087 C 157.171 10.165,154.659 10.298,152.868 10.382 C 151.078 10.467,148.078 10.608,146.202 10.697 C 144.326 10.785,141.256 10.931,139.380 11.020 C 137.504 11.110,135.365 11.198,134.627 11.216 C 133.477 11.245,133.243 11.366,132.990 12.059 C 132.828 12.504,132.608 13.078,132.502 13.333 C 132.396 13.589,132.276 13.950,132.236 14.134 C 132.196 14.319,131.798 15.155,131.353 15.992 C 130.907 16.830,130.543 17.692,130.543 17.909 C 130.543 18.126,130.422 18.545,130.275 18.841 C 129.100 21.203,128.372 22.933,128.372 23.364 C 128.372 23.646,128.224 23.876,128.044 23.876 C 127.863 23.876,127.802 24.016,127.907 24.186 C 128.012 24.357,127.928 24.496,127.719 24.496 C 127.510 24.496,127.425 24.583,127.531 24.689 C 127.637 24.795,127.379 25.562,126.958 26.394 C 126.536 27.226,126.271 27.907,126.369 27.907 C 126.548 27.907,126.391 28.253,124.864 31.240 C 124.406 32.136,124.031 33.088,124.031 33.356 C 124.031 33.624,123.820 34.053,123.563 34.311 C 123.306 34.568,123.174 34.907,123.271 35.064 C 123.368 35.221,123.276 35.349,123.067 35.349 C 122.858 35.349,122.775 35.436,122.882 35.543 C 122.989 35.650,122.841 36.173,122.554 36.706 C 122.266 37.239,122.011 37.948,121.985 38.281 C 121.960 38.615,121.782 38.941,121.590 39.005 C 121.398 39.069,121.240 39.324,121.240 39.571 C 121.240 39.818,121.037 40.506,120.789 41.101 C 120.540 41.695,120.306 42.284,120.268 42.409 C 120.230 42.534,120.021 42.814,119.803 43.032 C 119.585 43.250,119.485 43.634,119.581 43.885 C 119.678 44.136,119.602 44.341,119.413 44.341 C 119.224 44.341,119.070 44.620,119.070 44.961 C 119.070 45.302,118.922 45.581,118.741 45.581 C 118.561 45.581,118.500 45.722,118.606 45.894 C 118.712 46.065,118.511 46.610,118.159 47.104 C 117.807 47.598,117.519 48.295,117.519 48.653 C 117.519 49.010,117.380 49.302,117.209 49.302 C 117.039 49.302,116.899 49.495,116.899 49.730 C 116.899 49.965,116.664 50.697,116.377 51.357 C 116.089 52.018,115.880 52.663,115.911 52.791 C 115.943 52.919,115.821 53.023,115.641 53.023 C 115.460 53.023,115.398 53.163,115.504 53.333 C 115.609 53.504,115.552 53.643,115.377 53.643 C 115.202 53.643,115.139 53.853,115.237 54.109 C 115.335 54.364,115.276 54.574,115.106 54.574 C 114.937 54.574,114.709 55.048,114.600 55.627 C 114.491 56.207,114.154 57.009,113.851 57.410 C 113.547 57.811,113.104 58.767,112.865 59.535 C 112.627 60.302,112.166 61.414,111.842 62.006 C 111.518 62.598,111.189 63.432,111.111 63.860 C 111.033 64.288,110.854 64.711,110.713 64.800 C 110.572 64.889,110.308 65.501,110.127 66.161 C 109.946 66.820,109.606 67.588,109.372 67.866 C 109.139 68.144,108.755 69.000,108.519 69.767 C 108.284 70.535,107.825 71.647,107.501 72.238 C 107.176 72.830,106.848 73.664,106.770 74.092 C 106.692 74.520,106.486 74.959,106.311 75.067 C 106.136 75.175,106.002 75.351,106.012 75.458 C 106.043 75.793,105.703 76.702,105.127 77.829 C 104.821 78.426,104.397 79.462,104.183 80.130 C 103.968 80.798,103.526 81.799,103.198 82.353 C 102.871 82.908,102.532 83.753,102.446 84.232 C 102.359 84.711,102.145 85.191,101.970 85.299 C 101.795 85.407,101.661 85.583,101.670 85.690 C 101.699 86.003,101.378 86.868,100.618 88.527 C 100.227 89.380,99.813 90.397,99.697 90.787 C 99.581 91.177,99.150 92.084,98.739 92.802 C 98.328 93.521,97.990 94.422,97.988 94.806 C 97.986 95.190,97.845 95.504,97.674 95.504 C 97.504 95.504,97.394 95.609,97.430 95.736 C 97.466 95.864,97.303 96.318,97.068 96.744 C 96.832 97.171,96.661 97.589,96.688 97.674 C 96.796 98.018,96.373 98.915,96.103 98.915 C 95.944 98.915,95.814 99.198,95.814 99.543 C 95.814 99.889,95.326 101.160,94.729 102.368 C 94.132 103.576,93.643 104.828,93.643 105.150 C 93.643 105.473,93.481 105.736,93.282 105.736 C 93.083 105.736,93.008 105.825,93.116 105.932 C 93.223 106.040,93.149 106.424,92.950 106.785 C 92.751 107.146,92.557 107.629,92.519 107.857 C 92.481 108.085,92.230 108.514,91.961 108.811 C 91.693 109.108,91.473 109.586,91.473 109.874 C 91.473 110.161,91.341 110.638,91.179 110.934 C 90.213 112.708,89.302 114.862,89.302 115.374 C 89.302 115.701,89.140 115.969,88.941 115.969 C 88.742 115.969,88.667 116.057,88.775 116.165 C 88.882 116.272,88.808 116.656,88.609 117.018 C 88.410 117.379,88.216 117.861,88.178 118.089 C 88.140 118.317,87.918 118.736,87.685 119.019 C 87.451 119.303,87.073 120.093,86.844 120.775 C 86.615 121.457,86.036 122.844,85.558 123.857 C 85.079 124.870,84.757 125.812,84.843 125.950 C 84.928 126.089,84.827 126.202,84.618 126.202 C 84.409 126.202,84.330 126.293,84.442 126.406 C 84.554 126.518,84.502 126.783,84.327 126.994 C 84.151 127.206,83.947 127.691,83.874 128.073 C 83.800 128.455,83.527 129.003,83.265 129.292 C 83.004 129.580,82.791 129.994,82.791 130.210 C 82.791 130.427,82.590 131.044,82.345 131.581 C 81.712 132.968,80.843 134.997,80.764 135.271 C 80.728 135.399,80.664 135.609,80.622 135.736 C 80.581 135.864,80.563 136.074,80.583 136.202 C 80.604 136.329,80.472 136.434,80.292 136.434 C 80.111 136.434,80.044 136.564,80.142 136.723 C 80.240 136.882,80.178 137.099,80.005 137.206 C 79.832 137.313,79.690 137.607,79.690 137.859 C 79.690 138.110,79.451 138.681,79.159 139.126 C 78.868 139.571,78.591 140.186,78.544 140.492 C 78.497 140.797,78.185 141.579,77.850 142.229 C 77.078 143.727,76.527 145.097,76.378 145.891 C 76.314 146.233,76.130 146.557,75.970 146.612 C 75.810 146.667,75.589 147.190,75.479 147.775 C 75.370 148.359,75.172 148.837,75.040 148.837 C 74.828 148.837,74.543 149.485,74.261 150.605 C 74.155 151.030,72.685 154.302,72.236 155.112 C 72.072 155.408,71.938 155.931,71.938 156.275 C 71.938 156.618,71.814 156.899,71.662 156.899 C 71.392 156.899,70.856 158.374,70.957 158.837 C 70.985 158.965,70.860 159.070,70.679 159.070 C 70.499 159.070,70.427 159.193,70.521 159.345 C 70.614 159.496,70.483 159.792,70.229 160.003 C 69.975 160.214,69.767 160.644,69.767 160.959 C 69.767 161.274,69.513 161.989,69.202 162.549 C 68.890 163.108,68.368 164.333,68.041 165.271 C 67.714 166.209,67.360 167.047,67.254 167.132 C 67.055 167.291,66.606 168.515,66.476 169.252 C 66.436 169.480,66.184 169.910,65.915 170.207 C 65.646 170.504,65.426 170.987,65.426 171.280 C 65.426 171.574,65.188 172.260,64.897 172.806 C 64.605 173.352,64.350 173.868,64.328 173.953 C 64.307 174.039,64.128 174.498,63.930 174.975 C 63.732 175.451,63.485 176.184,63.380 176.603 C 63.275 177.022,63.064 177.364,62.912 177.364 C 62.760 177.364,62.636 177.635,62.636 177.966 C 62.636 178.297,62.494 178.656,62.321 178.763 C 62.147 178.870,62.075 179.069,62.159 179.206 C 62.244 179.343,62.037 179.773,61.699 180.162 C 61.361 180.552,61.085 181.063,61.085 181.298 C 61.085 181.533,60.854 182.244,60.571 182.878 C 60.288 183.512,60.036 184.101,60.011 184.186 C 59.629 185.485,58.713 187.597,58.532 187.597 C 58.401 187.597,58.295 187.868,58.295 188.199 C 58.295 188.530,58.153 188.888,57.979 188.995 C 57.806 189.102,57.738 189.309,57.827 189.454 C 57.917 189.599,57.786 189.921,57.537 190.171 C 57.288 190.420,57.170 190.710,57.276 190.816 C 57.381 190.921,57.316 191.008,57.131 191.008 C 56.945 191.008,56.696 191.461,56.577 192.016 C 56.458 192.570,56.208 193.302,56.021 193.643 C 55.834 193.984,55.671 194.333,55.660 194.419 C 55.596 194.879,54.418 197.698,54.234 197.829 C 54.115 197.915,53.860 198.571,53.667 199.288 C 53.475 200.006,53.118 200.791,52.875 201.034 C 52.632 201.277,52.335 201.876,52.214 202.366 C 52.094 202.855,51.815 203.535,51.594 203.876 C 51.373 204.217,51.196 204.566,51.200 204.651 C 51.203 204.736,51.036 205.225,50.827 205.736 C 50.619 206.248,50.399 206.922,50.339 207.233 C 50.278 207.545,50.021 208.008,49.766 208.263 C 49.511 208.518,49.302 208.989,49.302 209.310 C 49.302 210.002,48.671 211.473,48.374 211.473 C 48.260 211.473,47.898 212.310,47.571 213.333 C 47.244 214.357,46.872 215.194,46.744 215.194 C 46.616 215.194,46.512 215.450,46.512 215.762 C 46.512 216.075,46.415 216.427,46.297 216.545 C 46.179 216.664,46.039 217.046,45.985 217.396 C 45.932 217.746,45.680 218.241,45.425 218.496 C 45.170 218.750,44.961 219.222,44.961 219.542 C 44.961 220.255,44.327 221.705,44.015 221.705 C 43.890 221.705,43.537 222.543,43.231 223.566 C 42.924 224.589,42.560 225.426,42.422 225.426 C 42.284 225.426,42.171 225.682,42.171 225.995 C 42.171 226.307,42.074 226.660,41.956 226.778 C 41.838 226.896,41.695 227.297,41.638 227.669 C 41.581 228.041,41.418 228.421,41.274 228.514 C 41.061 228.652,40.594 229.733,40.465 230.388 C 40.319 231.132,39.905 231.938,39.669 231.938 C 39.510 231.938,39.380 232.209,39.380 232.540 C 39.380 232.871,39.231 233.234,39.049 233.346 C 38.866 233.459,38.788 233.736,38.875 233.962 C 38.962 234.188,38.833 234.539,38.590 234.741 C 38.346 234.943,38.223 235.233,38.316 235.384 C 38.410 235.535,38.354 235.659,38.191 235.659 C 37.908 235.659,37.364 237.118,37.469 237.597 C 37.496 237.725,37.384 237.829,37.219 237.829 C 37.054 237.829,36.999 238.039,37.097 238.295 C 37.195 238.550,37.136 238.760,36.966 238.760 C 36.690 238.760,36.351 239.599,36.092 240.925 C 36.043 241.177,35.855 241.433,35.674 241.494 C 35.493 241.554,35.424 241.731,35.520 241.887 C 35.617 242.043,35.524 242.171,35.315 242.171 C 35.106 242.171,35.029 242.264,35.143 242.378 C 35.257 242.493,35.135 242.915,34.872 243.317 C 34.608 243.719,34.467 244.168,34.557 244.315 C 34.648 244.461,34.516 244.752,34.264 244.961 C 34.012 245.170,33.876 245.456,33.962 245.595 C 34.048 245.735,33.975 245.938,33.798 246.047 C 33.622 246.155,33.559 246.374,33.657 246.533 C 33.755 246.692,33.687 246.822,33.507 246.822 C 33.326 246.822,33.178 247.101,33.178 247.442 C 33.178 247.783,33.016 248.062,32.817 248.062 C 32.618 248.062,32.547 248.154,32.659 248.266 C 32.771 248.378,32.738 248.622,32.586 248.809 C 32.433 248.995,32.150 249.740,31.956 250.465 C 31.763 251.190,31.462 251.783,31.288 251.783 C 31.114 251.783,31.057 251.922,31.163 252.093 C 31.268 252.264,31.183 252.403,30.974 252.403 C 30.765 252.403,30.682 252.491,30.790 252.599 C 30.898 252.707,30.781 253.086,30.532 253.443 C 30.282 253.800,30.078 254.261,30.078 254.467 C 30.078 254.674,29.915 255.236,29.716 255.716 C 29.517 256.196,29.339 256.659,29.320 256.744 C 29.300 256.829,28.883 257.736,28.392 258.760 C 27.901 259.783,27.527 260.795,27.562 261.008 C 27.596 261.221,27.470 261.395,27.282 261.395 C 27.094 261.395,27.019 261.524,27.116 261.680 C 27.213 261.837,27.077 262.181,26.813 262.445 C 26.550 262.708,26.356 262.963,26.382 263.012 C 26.408 263.061,26.204 263.641,25.928 264.301 C 25.652 264.962,25.426 265.694,25.426 265.929 C 25.426 266.164,25.287 266.357,25.116 266.357 C 24.946 266.357,24.806 266.612,24.806 266.925 C 24.806 267.238,24.710 267.590,24.591 267.708 C 24.473 267.826,24.333 268.213,24.278 268.568 C 24.224 268.922,23.910 269.555,23.580 269.975 C 23.250 270.394,23.057 270.938,23.151 271.183 C 23.245 271.428,23.159 271.628,22.961 271.628 C 22.762 271.628,22.678 271.756,22.775 271.913 C 22.872 272.070,22.731 272.419,22.461 272.688 C 22.192 272.958,22.054 273.178,22.155 273.178 C 22.256 273.178,22.056 273.731,21.712 274.406 C 21.367 275.082,21.085 275.849,21.085 276.112 C 21.085 276.374,20.946 276.589,20.775 276.589 C 20.605 276.589,20.465 276.845,20.465 277.158 C 20.465 277.470,20.368 277.823,20.250 277.941 C 20.132 278.059,19.992 278.442,19.939 278.792 C 19.885 279.141,19.633 279.636,19.378 279.891 C 19.123 280.146,18.915 280.693,18.915 281.107 C 18.915 281.522,18.767 281.860,18.586 281.860 C 18.406 281.860,18.337 281.989,18.434 282.146 C 18.531 282.302,18.390 282.651,18.120 282.921 C 17.851 283.190,17.710 283.411,17.808 283.411 C 17.906 283.411,17.706 283.932,17.365 284.569 C 17.024 285.206,16.744 285.974,16.744 286.274 C 16.744 286.575,16.605 286.822,16.434 286.822 C 16.264 286.822,16.124 287.057,16.124 287.344 C 16.124 287.631,15.852 288.434,15.520 289.127 C 14.830 290.566,14.202 292.091,14.096 292.584 C 14.056 292.769,13.659 293.605,13.213 294.442 C 12.768 295.279,12.403 296.209,12.403 296.509 C 12.403 296.809,12.264 297.054,12.093 297.054 C 11.922 297.054,11.783 297.349,11.783 297.710 C 11.783 298.070,11.506 298.873,11.168 299.493 C 10.587 300.558,10.037 301.887,9.963 302.405 C 9.945 302.534,9.507 303.476,8.991 304.498 C 8.475 305.520,8.133 306.357,8.230 306.357 C 8.408 306.357,8.251 306.704,6.724 309.690 C 6.266 310.586,5.891 311.597,5.891 311.938 C 5.891 312.279,5.744 312.558,5.563 312.558 C 5.382 312.558,5.321 312.698,5.426 312.868 C 5.532 313.039,5.462 313.178,5.271 313.178 C 5.081 313.178,5.011 313.318,5.116 313.488 C 5.222 313.659,5.152 313.798,4.961 313.798 C 4.771 313.798,4.685 313.913,4.772 314.053 C 4.858 314.193,4.650 314.767,4.308 315.328 C 3.967 315.890,3.761 316.423,3.851 316.513 C 3.941 316.603,3.827 317.040,3.597 317.485 C 3.059 318.529,2.263 320.395,2.224 320.709 C 2.207 320.843,1.977 321.168,1.714 321.431 C 1.450 321.695,1.315 322.040,1.412 322.198 C 1.510 322.356,1.370 322.705,1.102 322.973 C 0.834 323.241,0.694 323.589,0.791 323.746 C 0.888 323.903,0.811 324.031,0.620 324.031 C 0.429 324.031,0.363 324.177,0.474 324.355 C 0.584 324.533,0.514 324.870,0.319 325.105 C 0.039 325.443,0.081 325.510,0.525 325.425 C 0.833 325.367,1.085 325.297,1.085 325.271 C 1.085 325.204,2.252 324.931,2.713 324.891 C 2.926 324.873,3.101 324.727,3.101 324.566 C 3.101 324.406,3.310 324.355,3.566 324.453 C 3.822 324.551,4.031 324.482,4.031 324.298 C 4.031 324.115,4.236 324.043,4.486 324.139 C 4.737 324.235,5.025 324.178,5.128 324.012 C 5.230 323.847,5.440 323.789,5.594 323.884 C 5.748 323.979,6.221 323.830,6.644 323.552 C 7.068 323.274,7.576 323.147,7.773 323.269 C 7.970 323.391,8.224 323.340,8.337 323.157 C 8.450 322.974,8.958 322.747,9.465 322.654 C 9.973 322.560,10.806 322.405,11.318 322.308 C 11.829 322.212,12.381 322.002,12.543 321.842 C 12.705 321.682,13.216 321.550,13.680 321.550 C 14.143 321.550,14.576 321.388,14.643 321.189 C 14.709 320.990,15.209 320.827,15.754 320.827 C 16.298 320.827,16.744 320.702,16.744 320.550 C 16.744 320.398,16.880 320.357,17.046 320.460 C 17.211 320.562,17.704 320.412,18.140 320.126 C 18.577 319.840,19.022 319.693,19.128 319.800 C 19.235 319.907,19.481 319.863,19.674 319.703 C 19.867 319.543,20.438 319.335,20.943 319.242 C 21.448 319.149,22.228 319.002,22.677 318.917 C 23.126 318.831,23.883 318.558,24.360 318.311 C 24.837 318.064,25.357 317.942,25.516 318.040 C 25.676 318.138,25.916 318.040,26.052 317.821 C 26.187 317.602,26.729 317.436,27.257 317.451 C 27.785 317.466,28.217 317.352,28.217 317.198 C 28.217 317.045,28.412 316.994,28.651 317.085 C 28.889 317.177,29.178 317.100,29.292 316.915 C 29.407 316.730,29.630 316.659,29.789 316.757 C 29.948 316.856,30.078 316.773,30.078 316.574 C 30.078 316.375,30.270 316.287,30.505 316.377 C 30.740 316.467,31.054 316.420,31.203 316.273 C 31.351 316.126,31.822 315.938,32.248 315.854 C 34.490 315.413,35.234 315.211,35.916 314.857 C 36.329 314.643,36.858 314.541,37.093 314.631 C 37.327 314.721,37.519 314.641,37.519 314.452 C 37.519 314.263,38.008 314.109,38.605 314.109 C 39.202 314.109,39.690 313.973,39.690 313.808 C 39.690 313.643,39.885 313.583,40.124 313.674 C 40.362 313.766,40.651 313.689,40.765 313.504 C 40.880 313.320,41.103 313.248,41.262 313.347 C 41.420 313.445,41.550 313.362,41.550 313.163 C 41.550 312.965,41.746 312.877,41.985 312.969 C 42.224 313.060,42.515 313.041,42.631 312.924 C 42.747 312.808,42.935 312.701,43.049 312.686 C 43.163 312.672,43.465 312.578,43.721 312.479 C 43.977 312.380,44.605 312.215,45.116 312.113 C 46.171 311.902,46.363 311.843,47.442 311.405 C 47.868 311.231,48.391 311.156,48.605 311.237 C 48.818 311.318,48.992 311.230,48.992 311.041 C 48.992 310.852,49.481 310.698,50.078 310.698 C 50.674 310.698,51.163 310.581,51.163 310.439 C 51.163 310.297,51.372 310.158,51.628 310.129 C 51.884 310.101,52.302 310.054,52.558 310.026 C 52.814 309.997,53.023 309.843,53.023 309.683 C 53.023 309.522,53.219 309.466,53.458 309.558 C 53.697 309.650,53.988 309.630,54.104 309.514 C 54.220 309.397,54.408 309.290,54.522 309.276 C 54.636 309.261,54.938 309.167,55.194 309.068 C 55.450 308.969,56.008 308.819,56.434 308.735 C 57.923 308.442,58.568 308.258,59.127 307.971 C 59.437 307.811,59.864 307.743,60.078 307.820 C 60.291 307.896,60.465 307.837,60.465 307.689 C 60.465 307.540,60.913 307.385,61.461 307.343 C 62.008 307.301,62.532 307.167,62.623 307.044 C 62.715 306.922,62.965 306.787,63.178 306.744 C 63.391 306.702,63.740 306.632,63.953 306.589 C 64.167 306.547,64.424 306.398,64.526 306.260 C 64.628 306.121,65.152 305.995,65.689 305.980 C 66.227 305.965,66.667 305.849,66.667 305.723 C 66.667 305.597,67.120 305.425,67.674 305.340 C 69.141 305.115,69.959 304.891,70.637 304.529 C 70.967 304.352,71.312 304.284,71.406 304.377 C 71.499 304.470,71.895 304.375,72.286 304.166 C 72.677 303.956,73.212 303.757,73.475 303.723 C 74.614 303.577,75.969 303.161,75.969 302.959 C 75.969 302.747,76.451 302.644,77.597 302.612 C 77.895 302.604,78.140 302.443,78.140 302.255 C 78.140 302.066,78.222 301.995,78.323 302.095 C 78.423 302.196,79.051 302.086,79.718 301.851 C 80.385 301.615,80.930 301.490,80.930 301.572 C 80.930 301.654,81.331 301.514,81.821 301.261 C 82.311 301.007,82.788 300.875,82.880 300.968 C 82.972 301.060,83.368 300.964,83.759 300.755 C 84.150 300.546,84.685 300.347,84.948 300.313 C 86.086 300.166,87.442 299.750,87.442 299.548 C 87.442 299.336,87.924 299.234,89.070 299.201 C 89.368 299.193,89.612 299.055,89.612 298.895 C 89.612 298.736,89.717 298.636,89.845 298.674 C 90.068 298.741,92.680 298.107,93.643 297.753 C 93.899 297.658,94.388 297.531,94.729 297.469 C 95.070 297.408,95.558 297.268,95.814 297.159 C 96.070 297.050,96.515 296.914,96.804 296.857 C 97.092 296.800,97.929 296.536,98.664 296.270 C 99.399 296.003,100.279 295.732,100.620 295.667 C 100.961 295.602,101.798 295.335,102.481 295.075 C 103.163 294.814,104.027 294.595,104.400 294.587 C 104.774 294.580,105.166 294.434,105.271 294.264 C 105.377 294.093,105.845 293.953,106.313 293.953 C 106.780 293.953,107.330 293.786,107.535 293.581 C 107.740 293.377,107.907 293.299,107.907 293.410 C 107.907 293.520,108.709 293.329,109.690 292.985 C 110.671 292.641,111.700 292.311,111.978 292.251 C 112.256 292.192,113.163 291.907,113.994 291.618 C 114.824 291.329,115.713 291.064,115.969 291.030 C 116.586 290.946,118.178 290.536,118.760 290.311 C 119.016 290.212,119.329 290.102,119.457 290.066 C 119.585 290.029,119.760 289.965,119.845 289.922 C 120.030 289.830,120.180 289.788,121.395 289.485 C 121.907 289.358,122.605 289.139,122.946 288.999 C 123.553 288.749,126.985 287.690,127.597 287.563 C 127.767 287.528,128.395 287.409,128.992 287.298 C 129.589 287.188,130.199 286.976,130.348 286.829 C 130.497 286.681,130.811 286.634,131.046 286.724 C 131.281 286.814,131.473 286.734,131.473 286.545 C 131.473 286.356,131.578 286.224,131.705 286.252 C 132.045 286.327,133.457 285.938,136.434 284.950 C 137.884 284.469,139.625 283.992,140.304 283.889 C 140.983 283.786,141.663 283.577,141.815 283.425 C 141.967 283.273,142.283 283.223,142.518 283.313 C 142.753 283.403,142.946 283.315,142.946 283.116 C 142.946 282.917,143.085 282.840,143.256 282.946 C 143.426 283.051,143.740 283.029,143.953 282.895 C 144.167 282.762,144.620 282.614,144.961 282.566 C 145.302 282.518,145.860 282.345,146.202 282.181 C 147.150 281.724,150.864 280.592,151.597 280.537 C 151.955 280.510,152.248 280.413,152.249 280.322 C 152.249 280.230,152.692 280.124,153.233 280.086 C 153.774 280.048,154.324 279.842,154.456 279.630 C 154.587 279.417,154.790 279.338,154.906 279.454 C 155.022 279.570,155.591 279.468,156.169 279.226 C 156.747 278.984,157.288 278.783,157.371 278.779 C 157.874 278.752,159.274 278.325,159.543 278.117 C 159.717 277.981,160.206 277.822,160.628 277.764 C 161.050 277.706,161.579 277.544,161.804 277.403 C 162.028 277.262,162.294 277.230,162.395 277.331 C 162.496 277.431,162.757 277.366,162.974 277.186 C 163.192 277.005,163.897 276.792,164.542 276.712 C 165.186 276.632,165.816 276.401,165.941 276.199 C 166.066 275.997,166.263 275.927,166.379 276.043 C 166.495 276.159,167.061 276.058,167.636 275.817 C 168.212 275.577,168.682 275.431,168.682 275.492 C 168.682 275.553,169.589 275.275,170.698 274.873 C 171.806 274.471,172.713 274.221,172.713 274.318 C 172.713 274.415,172.926 274.318,173.186 274.102 C 173.446 273.887,173.743 273.795,173.847 273.898 C 173.950 274.002,174.331 273.923,174.692 273.723 C 175.053 273.522,175.767 273.307,176.279 273.245 C 176.791 273.182,177.256 273.002,177.313 272.845 C 177.370 272.687,177.692 272.558,178.030 272.558 C 178.748 272.558,181.414 271.778,182.890 271.135 C 183.455 270.889,184.039 270.762,184.186 270.853 C 184.333 270.944,184.547 270.867,184.661 270.682 C 184.775 270.497,185.064 270.420,185.303 270.512 C 185.541 270.603,185.736 270.535,185.736 270.360 C 185.736 270.184,185.866 270.121,186.025 270.219 C 186.184 270.317,186.401 270.256,186.509 270.083 C 186.616 269.909,187.183 269.767,187.770 269.767 C 188.357 269.767,188.837 269.651,188.837 269.509 C 188.837 269.367,189.012 269.239,189.225 269.224 C 189.963 269.173,193.337 268.195,195.292 267.465 C 196.028 267.190,196.761 267.046,196.920 267.145 C 197.079 267.243,197.209 267.167,197.209 266.977 C 197.209 266.786,197.339 266.710,197.498 266.808 C 197.657 266.907,197.874 266.845,197.981 266.672 C 198.088 266.498,198.656 266.357,199.243 266.357 C 199.849 266.357,200.310 266.200,200.310 265.995 C 200.310 265.796,200.402 265.725,200.514 265.837 C 200.626 265.949,200.909 265.883,201.142 265.690 C 201.375 265.496,201.650 265.423,201.754 265.526 C 201.857 265.630,202.216 265.568,202.550 265.389 C 202.884 265.210,203.563 265.013,204.059 264.950 C 204.555 264.887,205.446 264.605,206.040 264.323 C 206.634 264.042,207.471 263.791,207.901 263.766 C 208.330 263.741,208.682 263.608,208.682 263.470 C 208.682 263.332,208.812 263.299,208.971 263.398 C 209.130 263.496,209.353 263.425,209.467 263.240 C 209.582 263.055,209.853 262.972,210.070 263.055 C 210.288 263.139,210.832 263.017,211.279 262.785 C 211.727 262.552,212.093 262.441,212.093 262.537 C 212.093 262.633,212.306 262.535,212.566 262.319 C 212.826 262.104,213.122 262.011,213.225 262.114 C 213.328 262.217,213.778 262.116,214.225 261.891 C 214.673 261.665,215.213 261.543,215.426 261.619 C 215.640 261.695,215.814 261.598,215.814 261.403 C 215.814 261.208,215.952 261.134,216.121 261.238 C 216.289 261.342,216.914 261.197,217.510 260.914 C 218.105 260.631,218.944 260.380,219.373 260.355 C 219.803 260.330,220.155 260.197,220.155 260.059 C 220.155 259.921,220.285 259.889,220.444 259.987 C 220.602 260.085,220.826 260.014,220.940 259.829 C 221.054 259.644,221.326 259.561,221.543 259.644 C 221.761 259.728,222.305 259.606,222.752 259.374 C 223.200 259.141,223.566 259.030,223.566 259.126 C 223.566 259.222,223.779 259.124,224.039 258.909 C 224.298 258.693,224.595 258.600,224.698 258.703 C 224.801 258.806,225.251 258.705,225.698 258.480 C 226.146 258.254,226.686 258.132,226.899 258.208 C 227.112 258.284,227.287 258.187,227.287 257.992 C 227.287 257.797,227.417 257.718,227.576 257.817 C 227.736 257.915,228.399 257.788,229.049 257.534 C 229.700 257.281,230.628 257.006,231.112 256.924 C 231.596 256.842,232.167 256.630,232.381 256.452 C 232.595 256.275,232.859 256.218,232.967 256.326 C 233.075 256.434,233.376 256.346,233.636 256.130 C 233.896 255.915,234.109 255.842,234.109 255.969 C 234.109 256.096,234.339 256.008,234.621 255.774 C 234.903 255.540,235.181 255.380,235.238 255.418 C 235.295 255.456,235.518 255.433,235.733 255.366 C 235.948 255.300,236.543 255.141,237.054 255.012 C 238.326 254.694,238.438 254.661,238.527 254.584 C 238.570 254.547,239.093 254.448,239.690 254.364 C 240.286 254.280,240.914 254.099,241.085 253.962 C 241.256 253.825,242.198 253.535,243.178 253.319 C 244.159 253.102,244.961 252.792,244.961 252.631 C 244.961 252.469,245.148 252.408,245.376 252.496 C 245.604 252.584,246.197 252.480,246.694 252.265 C 248.003 251.700,250.574 250.890,251.473 250.760 C 252.493 250.612,255.884 249.597,256.279 249.321 C 256.450 249.202,257.008 249.078,257.519 249.046 C 258.031 249.013,258.496 248.849,258.553 248.679 C 258.610 248.510,258.894 248.372,259.184 248.372 C 259.474 248.372,260.516 248.089,261.500 247.744 C 262.483 247.398,263.420 247.197,263.582 247.297 C 263.744 247.397,263.876 247.307,263.876 247.098 C 263.876 246.889,263.957 246.799,264.056 246.898 C 264.210 247.053,266.120 246.549,267.597 245.964 C 268.037 245.790,268.828 245.623,269.690 245.523 C 269.903 245.498,270.078 245.362,270.078 245.220 C 270.078 245.078,270.327 244.961,270.631 244.961 C 270.935 244.961,271.959 244.689,272.905 244.357 C 273.851 244.024,275.008 243.682,275.476 243.598 C 276.295 243.449,278.105 242.931,279.070 242.569 C 279.521 242.400,280.372 242.215,281.163 242.116 C 281.376 242.089,281.550 241.928,281.550 241.757 C 281.550 241.587,281.637 241.533,281.742 241.639 C 281.847 241.744,282.641 241.561,283.506 241.233 C 284.372 240.904,285.145 240.700,285.224 240.780 C 285.304 240.860,285.533 240.789,285.734 240.622 C 285.935 240.456,286.607 240.254,287.227 240.175 C 287.848 240.095,288.639 239.879,288.984 239.694 C 289.330 239.509,289.612 239.438,289.612 239.535 C 289.612 239.632,289.926 239.539,290.310 239.327 C 290.694 239.116,291.240 238.978,291.523 239.021 C 291.806 239.064,292.130 238.951,292.242 238.769 C 292.354 238.588,292.576 238.520,292.735 238.618 C 292.893 238.716,293.023 238.625,293.023 238.416 C 293.023 238.207,293.105 238.118,293.204 238.217 C 293.304 238.317,294.141 238.138,295.065 237.821 C 295.988 237.503,296.744 237.309,296.744 237.389 C 296.744 237.469,297.159 237.321,297.665 237.059 C 298.172 236.797,298.695 236.601,298.828 236.623 C 298.961 236.645,299.140 236.635,299.225 236.600 C 299.310 236.566,299.786 236.472,300.282 236.391 C 300.779 236.311,301.457 236.054,301.791 235.820 C 302.124 235.587,302.592 235.470,302.830 235.562 C 303.069 235.653,303.459 235.566,303.698 235.368 C 303.937 235.170,304.528 234.931,305.012 234.839 C 306.310 234.589,306.812 234.473,306.899 234.404 C 306.942 234.369,307.116 234.306,307.287 234.264 C 307.457 234.221,307.632 234.158,307.674 234.124 C 307.788 234.032,308.930 233.767,309.380 233.729 C 309.593 233.710,309.767 233.564,309.767 233.404 C 309.767 233.243,309.977 233.192,310.233 233.290 C 310.488 233.389,310.698 233.319,310.698 233.135 C 310.698 232.952,310.903 232.880,311.153 232.977 C 311.403 233.073,311.692 233.015,311.794 232.850 C 311.897 232.684,312.107 232.626,312.261 232.721 C 312.415 232.816,312.887 232.667,313.311 232.389 C 313.735 232.112,314.243 231.984,314.440 232.106 C 314.637 232.228,314.891 232.178,315.004 231.994 C 315.117 231.811,315.625 231.585,316.132 231.491 C 316.639 231.397,317.473 231.242,317.984 231.146 C 318.496 231.049,319.047 230.839,319.209 230.679 C 319.371 230.519,319.883 230.388,320.346 230.388 C 320.810 230.388,321.243 230.225,321.309 230.026 C 321.376 229.827,321.876 229.664,322.420 229.664 C 322.965 229.664,323.411 229.540,323.411 229.387 C 323.411 229.235,323.546 229.194,323.712 229.297 C 323.878 229.399,324.371 229.249,324.807 228.963 C 325.244 228.677,325.688 228.531,325.795 228.637 C 325.902 228.744,326.148 228.701,326.341 228.540 C 326.534 228.380,327.105 228.172,327.610 228.079 C 328.114 227.986,328.894 227.840,329.343 227.754 C 329.792 227.668,330.550 227.396,331.027 227.148 C 331.503 226.901,332.024 226.779,332.183 226.877 C 332.342 226.976,332.583 226.877,332.718 226.658 C 332.854 226.440,333.396 226.273,333.924 226.288 C 334.452 226.303,334.884 226.189,334.884 226.036 C 334.884 225.882,335.079 225.831,335.317 225.922 C 335.556 226.014,335.845 225.937,335.959 225.753 C 336.073 225.568,336.297 225.497,336.456 225.595 C 336.614 225.693,336.744 225.610,336.744 225.411 C 336.744 225.213,336.936 225.124,337.172 225.214 C 337.407 225.304,337.721 225.258,337.869 225.111 C 338.018 224.964,338.488 224.775,338.915 224.691 C 341.156 224.250,341.900 224.048,342.583 223.694 C 342.996 223.480,343.525 223.379,343.760 223.469 C 343.994 223.559,344.186 223.478,344.186 223.289 C 344.186 223.100,344.674 222.946,345.271 222.946 C 345.868 222.946,346.357 222.811,346.357 222.645 C 346.357 222.480,346.552 222.420,346.790 222.511 C 347.029 222.603,347.318 222.527,347.432 222.342 C 347.546 222.157,347.770 222.086,347.928 222.184 C 348.087 222.282,348.217 222.199,348.217 222.001 C 348.217 221.802,348.413 221.714,348.652 221.806 C 348.891 221.898,349.182 221.878,349.298 221.762 C 349.414 221.645,349.602 221.538,349.716 221.524 C 349.829 221.509,350.132 221.416,350.388 221.316 C 350.643 221.217,351.271 221.052,351.783 220.950 C 352.838 220.739,353.030 220.681,354.109 220.242 C 354.535 220.068,355.058 219.993,355.271 220.074 C 355.484 220.155,355.659 220.067,355.659 219.878 C 355.659 219.689,356.147 219.535,356.744 219.535 C 357.341 219.535,357.829 219.400,357.829 219.235 C 357.829 219.069,358.025 219.009,358.263 219.101 C 358.502 219.192,358.790 219.116,358.905 218.931 C 359.019 218.746,359.243 218.675,359.401 218.773 C 359.560 218.871,359.690 218.789,359.690 218.590 C 359.690 218.391,359.886 218.303,360.125 218.395 C 360.364 218.487,360.655 218.467,360.771 218.351 C 360.887 218.235,361.075 218.127,361.189 218.113 C 361.302 218.098,361.605 218.005,361.860 217.905 C 362.116 217.806,362.744 217.641,363.256 217.539 C 364.311 217.328,364.503 217.270,365.581 216.831 C 366.008 216.658,366.531 216.582,366.744 216.663 C 366.957 216.744,367.132 216.656,367.132 216.467 C 367.132 216.278,367.620 216.124,368.217 216.124 C 368.814 216.124,369.302 216.008,369.302 215.866 C 369.302 215.724,369.512 215.584,369.767 215.556 C 370.023 215.527,370.442 215.481,370.698 215.452 C 370.953 215.424,371.163 215.269,371.163 215.109 C 371.163 214.949,371.358 214.892,371.598 214.984 C 371.837 215.076,372.127 215.056,372.244 214.940 C 372.360 214.824,372.548 214.717,372.661 214.702 C 372.775 214.687,373.078 214.594,373.333 214.494 C 373.589 214.395,374.147 214.245,374.574 214.161 C 376.062 213.868,376.708 213.685,377.267 213.397 C 377.576 213.237,378.004 213.170,378.217 213.246 C 378.430 213.322,378.605 213.264,378.605 213.115 C 378.605 212.967,379.053 212.811,379.600 212.769 C 380.148 212.728,380.671 212.593,380.763 212.471 C 380.855 212.348,381.070 212.225,381.240 212.196 C 382.120 212.050,382.498 211.914,382.666 211.686 C 382.768 211.547,383.291 211.422,383.829 211.406 C 384.366 211.391,384.806 211.275,384.806 211.150 C 384.806 211.024,385.260 210.851,385.814 210.766 C 387.281 210.542,388.099 210.318,388.776 209.955 C 389.106 209.779,389.452 209.710,389.545 209.803 C 389.638 209.897,390.034 209.801,390.426 209.592 C 390.817 209.383,391.352 209.184,391.615 209.150 C 392.753 209.003,394.109 208.587,394.109 208.385 C 394.109 208.173,394.591 208.071,395.736 208.039 C 396.035 208.030,396.279 207.893,396.279 207.733 C 396.279 207.573,396.384 207.470,396.512 207.505 C 397.439 207.755,399.934 206.671,399.808 206.073 C 399.732 205.717,399.595 204.663,399.502 203.731 C 399.409 202.798,399.239 201.891,399.124 201.715 C 398.941 201.434,398.837 200.729,398.736 199.070 C 398.720 198.814,398.629 198.395,398.532 198.140 C 398.248 197.390,397.789 194.555,397.741 193.256 C 397.733 193.043,397.626 192.868,397.504 192.868 C 397.382 192.868,397.272 192.484,397.259 192.016 C 397.235 191.086,396.998 189.302,396.899 189.302 C 396.832 189.302,396.597 187.721,396.554 186.977 C 396.539 186.721,396.384 185.953,396.209 185.271 C 396.034 184.589,395.839 183.647,395.775 183.178 C 395.409 180.491,395.034 178.191,394.826 177.364 C 394.719 176.938,394.579 176.380,394.515 176.124 C 394.450 175.868,394.335 175.136,394.259 174.497 C 394.183 173.857,394.038 172.950,393.937 172.481 C 393.721 171.480,393.519 170.383,393.349 169.302 C 393.283 168.876,393.169 168.318,393.098 168.062 C 393.026 167.806,392.870 167.039,392.751 166.357 C 392.632 165.674,392.389 164.349,392.211 163.411 C 392.032 162.473,391.843 161.287,391.789 160.775 C 391.735 160.264,391.599 159.496,391.487 159.070 C 391.375 158.643,391.224 157.772,391.152 157.132 C 391.079 156.493,390.933 155.586,390.827 155.117 C 390.721 154.648,390.524 153.566,390.389 152.713 C 390.255 151.860,390.051 150.814,389.936 150.388 C 389.821 149.961,389.676 149.194,389.612 148.682 C 389.549 148.171,389.476 147.752,389.451 147.752 C 389.425 147.752,389.368 147.333,389.323 146.822 C 389.279 146.310,389.095 145.378,388.915 144.750 C 388.736 144.122,388.658 143.538,388.744 143.453 C 388.829 143.367,388.735 142.799,388.534 142.191 C 388.333 141.582,388.122 140.631,388.065 140.077 C 388.008 139.523,387.933 139.070,387.899 139.070 C 387.865 139.070,387.798 138.651,387.751 138.140 C 387.704 137.628,387.571 136.791,387.457 136.279 C 387.343 135.767,387.182 134.735,387.099 133.984 C 387.016 133.234,386.835 132.397,386.695 132.124 C 386.556 131.851,386.469 131.314,386.502 130.930 C 386.536 130.547,386.472 130.233,386.361 130.233 C 386.250 130.233,386.151 129.849,386.141 129.380 C 386.132 128.911,386.026 128.109,385.907 127.597 C 385.788 127.085,385.661 126.359,385.625 125.984 C 385.589 125.608,385.469 125.211,385.359 125.101 C 385.249 124.991,385.232 124.711,385.321 124.479 C 385.410 124.246,385.334 123.597,385.152 123.036 C 384.970 122.475,384.738 121.457,384.636 120.775 C 384.356 118.891,384.244 118.295,384.171 118.295 C 384.108 118.295,383.917 116.711,383.852 115.659 C 383.837 115.403,383.745 114.984,383.648 114.729 C 383.376 114.010,383.278 113.470,383.086 111.645 C 382.988 110.717,382.812 109.810,382.695 109.630 C 382.577 109.450,382.450 108.953,382.411 108.527 C 382.305 107.357,382.085 105.891,382.016 105.891 C 381.982 105.891,381.907 105.543,381.849 105.116 C 381.540 102.834,381.358 101.799,381.166 101.240 C 381.049 100.899,380.916 100.271,380.872 99.845 C 380.737 98.564,380.531 97.214,380.457 97.132 C 380.419 97.089,380.368 96.810,380.344 96.512 C 380.320 96.213,380.198 95.807,380.072 95.609 C 379.946 95.412,379.926 95.035,380.026 94.772 C 380.127 94.508,380.100 94.115,379.965 93.896 C 379.830 93.678,379.690 93.288,379.653 93.029 C 379.617 92.770,379.515 92.000,379.426 91.318 C 379.240 89.896,379.002 88.559,378.737 87.442 C 378.635 87.016,378.506 86.318,378.450 85.891 C 378.393 85.465,378.257 84.767,378.148 84.341 C 378.038 83.915,377.884 83.008,377.804 82.326 C 377.644 80.954,377.563 80.522,377.247 79.380 C 377.130 78.953,376.982 78.116,376.919 77.519 C 376.856 76.922,376.713 76.085,376.602 75.659 C 376.490 75.233,376.333 74.326,376.254 73.643 C 376.094 72.272,376.012 71.840,375.697 70.698 C 375.579 70.271,375.432 69.434,375.369 68.837 C 375.306 68.240,375.155 67.403,375.033 66.977 C 374.912 66.550,374.768 65.713,374.714 65.116 C 374.610 63.979,374.470 63.233,374.000 61.333 C 373.843 60.702,373.778 60.123,373.855 60.047 C 373.932 59.970,373.826 59.300,373.621 58.558 C 373.416 57.816,373.211 56.860,373.166 56.434 C 373.121 56.008,373.053 55.659,373.014 55.659 C 372.975 55.659,372.917 55.310,372.886 54.884 C 372.856 54.457,372.711 53.550,372.565 52.868 C 372.418 52.186,372.325 51.514,372.358 51.376 C 372.390 51.237,372.259 50.540,372.067 49.826 C 371.566 47.967,371.465 47.456,371.284 45.891 C 371.068 44.031,370.946 43.256,370.866 43.256 C 370.830 43.256,370.741 42.628,370.668 41.860 C 370.595 41.093,370.446 40.256,370.337 40.000 C 370.050 39.327,369.927 38.761,369.762 37.364 C 369.606 36.046,369.387 34.884,369.293 34.884 C 369.262 34.884,369.186 34.221,369.123 33.412 C 369.061 32.602,368.814 31.207,368.574 30.311 C 368.333 29.415,368.122 28.403,368.104 28.062 C 368.056 27.157,367.919 26.559,367.667 26.155 C 367.544 25.959,367.445 25.471,367.447 25.070 C 367.454 23.751,367.392 23.107,367.214 22.636 C 366.949 21.936,366.855 21.402,366.667 19.557 C 366.573 18.631,366.379 17.724,366.236 17.541 C 366.093 17.359,365.976 17.000,365.975 16.744 C 365.975 16.488,365.871 15.721,365.743 15.039 C 365.616 14.357,365.476 13.380,365.433 12.868 C 365.389 12.357,365.319 11.868,365.276 11.783 C 365.233 11.698,365.217 11.514,365.241 11.376 C 365.265 11.237,365.115 10.539,364.908 9.825 C 364.701 9.111,364.492 8.178,364.444 7.752 C 364.283 6.326,364.093 5.116,364.031 5.116 C 363.964 5.116,363.729 3.535,363.686 2.791 C 363.671 2.535,363.537 1.837,363.389 1.240 L 363.119 0.155 360.302 0.146 C 358.753 0.142,357.424 0.199,357.348 0.274 "
      stroke="none" fill="#00acee" fill-rule="evenodd">
    </path>
  </g>
</svg>
