<svg xmlns="http://www.w3.org/2000/svg" width="400" height="325.581"><path d="M357.348.274c-.075.075-1.637.182-3.471.236-1.834.055-4.73.176-6.435.27-1.706.093-4.426.229-6.047.302-7.486.337-10.872.501-13.023.633-1.279.078-3.791.211-5.581.295l-6.667.318c-1.876.09-4.736.221-6.357.291-1.62.069-4.55.211-6.511.315-5.782.306-9.261.481-12.558.632-1.706.078-4.496.219-6.202.313a731.17 731.17 0 01-6.046.304c-7.487.336-10.873.501-13.024.632-1.279.078-3.79.211-5.581.296l-6.667.316c-1.876.089-4.806.226-6.511.303-1.706.077-4.496.215-6.202.306-4.014.215-8.858.458-12.558.631-1.62.076-4.271.209-5.891.296-3.362.181-8.718.442-13.024.635-3.333.15-7.893.383-11.783.604-1.449.082-4.38.227-6.511.323-8.422.376-10.192.46-13.179.625a731.17 731.17 0 01-6.046.304c-7.486.337-10.873.501-13.023.633a492.95 492.95 0 01-5.582.295l-6.666.315-6.822.323c-1.876.09-4.015.178-4.753.196-1.15.029-1.384.15-1.637.843a39.132 39.132 0 01-.488 1.274 5.915 5.915 0 00-.266.801c-.04.185-.438 1.021-.883 1.858-.446.838-.81 1.7-.81 1.917 0 .217-.121.636-.268.932-1.175 2.362-1.903 4.092-1.903 4.523 0 .282-.148.512-.328.512-.181 0-.242.14-.137.31.105.171.021.31-.188.31s-.294.087-.188.193c.106.106-.152.873-.573 1.705-.422.832-.687 1.513-.589 1.513.179 0 .022.346-1.505 3.333-.458.896-.833 1.848-.833 2.116s-.211.697-.468.955c-.257.257-.389.596-.292.753.097.157.005.285-.204.285s-.292.087-.185.194c.107.107-.041.63-.328 1.163-.288.533-.543 1.242-.569 1.575-.025.334-.203.66-.395.724-.192.064-.35.319-.35.566 0 .247-.203.935-.451 1.53a27.207 27.207 0 00-.521 1.308c-.038.125-.247.405-.465.623-.218.218-.318.602-.222.853.097.251.021.456-.168.456s-.343.279-.343.62c0 .341-.148.62-.329.62-.18 0-.241.141-.135.313.106.171-.095.716-.447 1.21s-.64 1.191-.64 1.549c0 .357-.139.649-.31.649-.17 0-.31.193-.31.428s-.235.967-.522 1.627c-.288.661-.497 1.306-.466 1.434.032.128-.09.232-.27.232-.181 0-.243.14-.137.31.105.171.048.31-.127.31s-.238.21-.14.466c.098.255.039.465-.131.465-.169 0-.397.474-.506 1.053-.109.58-.446 1.382-.749 1.783-.304.401-.747 1.357-.986 2.125-.238.767-.699 1.879-1.023 2.471-.324.592-.653 1.426-.731 1.854-.078.428-.257.851-.398.94-.141.089-.405.701-.586 1.361-.181.659-.521 1.427-.755 1.705-.233.278-.617 1.134-.853 1.901-.235.768-.694 1.88-1.018 2.471-.325.592-.653 1.426-.731 1.854-.078.428-.284.867-.459.975-.175.108-.309.284-.299.391.031.335-.309 1.244-.885 2.371-.306.597-.73 1.633-.944 2.301-.215.668-.657 1.669-.985 2.223-.327.555-.666 1.4-.752 1.879-.087.479-.301.959-.476 1.067-.175.108-.309.284-.3.391.029.313-.292 1.178-1.052 2.837-.391.853-.805 1.87-.921 2.26-.116.39-.547 1.297-.958 2.015-.411.719-.749 1.62-.751 2.004-.002.384-.143.698-.314.698-.17 0-.28.105-.244.232.036.128-.127.582-.362 1.008-.236.427-.407.845-.38.93.108.344-.315 1.241-.585 1.241-.159 0-.289.283-.289.628 0 .346-.488 1.617-1.085 2.825-.597 1.208-1.086 2.46-1.086 2.782 0 .323-.162.586-.361.586-.199 0-.274.089-.166.196.107.108.033.492-.166.853s-.393.844-.431 1.072c-.038.228-.289.657-.558.954-.268.297-.488.775-.488 1.063 0 .287-.132.764-.294 1.06-.966 1.774-1.877 3.928-1.877 4.44 0 .327-.162.595-.361.595-.199 0-.274.088-.166.196.107.107.033.491-.166.853-.199.361-.393.843-.431 1.071-.038.228-.26.647-.493.93-.234.284-.612 1.074-.841 1.756-.229.682-.808 2.069-1.286 3.082-.479 1.013-.801 1.955-.715 2.093.085.139-.016.252-.225.252-.209 0-.288.091-.176.204.112.112.06.377-.115.588-.176.212-.38.697-.453 1.079a2.99 2.99 0 01-.609 1.219c-.261.288-.474.702-.474.918 0 .217-.201.834-.446 1.371-.633 1.387-1.502 3.416-1.581 3.69-.036.128-.1.338-.142.465a1.21 1.21 0 00-.039.466c.021.127-.111.232-.291.232-.181 0-.248.13-.15.289.098.159.036.376-.137.483-.173.107-.315.401-.315.653 0 .251-.239.822-.531 1.267-.291.445-.568 1.06-.615 1.366-.047.305-.359 1.087-.694 1.737-.772 1.498-1.323 2.868-1.472 3.662-.064.342-.248.666-.408.721-.16.055-.381.578-.491 1.163-.109.584-.307 1.062-.439 1.062-.212 0-.497.648-.779 1.768-.106.425-1.576 3.697-2.025 4.507a2.845 2.845 0 00-.298 1.163c0 .343-.124.624-.276.624-.27 0-.806 1.475-.705 1.938.028.128-.097.233-.278.233-.18 0-.252.123-.158.275.093.151-.038.447-.292.658-.254.211-.462.641-.462.956 0 .315-.254 1.03-.565 1.59-.312.559-.834 1.784-1.161 2.722-.327.938-.681 1.776-.787 1.861-.199.159-.648 1.383-.778 2.12-.04.228-.292.658-.561.955-.269.297-.489.78-.489 1.073 0 .294-.238.98-.529 1.526-.292.546-.547 1.062-.569 1.147-.021.086-.2.545-.398 1.022a14.083 14.083 0 00-.55 1.628c-.105.419-.316.761-.468.761-.152 0-.276.271-.276.602 0 .331-.142.69-.315.797-.174.107-.246.306-.162.443.085.137-.122.567-.46.956-.338.39-.614.901-.614 1.136 0 .235-.231.946-.514 1.58a28.719 28.719 0 00-.56 1.308c-.382 1.299-1.298 3.411-1.479 3.411-.131 0-.237.271-.237.602 0 .331-.142.689-.316.796-.173.107-.241.314-.152.459.09.145-.041.467-.29.717-.249.249-.367.539-.261.645.105.105.04.192-.145.192-.186 0-.435.453-.554 1.008-.119.554-.369 1.286-.556 1.627-.187.341-.35.69-.361.776-.064.46-1.242 3.279-1.426 3.41-.119.086-.374.742-.567 1.459-.192.718-.549 1.503-.792 1.746-.243.243-.54.842-.661 1.332-.12.489-.399 1.169-.62 1.51-.221.341-.398.69-.394.775.003.085-.164.574-.373 1.085-.208.512-.428 1.186-.488 1.497-.061.312-.318.775-.573 1.03-.255.255-.464.726-.464 1.047 0 .692-.631 2.163-.928 2.163-.114 0-.476.837-.803 1.86-.327 1.024-.699 1.861-.827 1.861s-.232.256-.232.568c0 .313-.097.665-.215.783-.118.119-.258.501-.312.851-.053.35-.305.845-.56 1.1-.255.254-.464.726-.464 1.046 0 .713-.634 2.163-.946 2.163-.125 0-.478.838-.784 1.861-.307 1.023-.671 1.86-.809 1.86s-.251.256-.251.569c0 .312-.097.665-.215.783s-.261.519-.318.891c-.057.372-.22.752-.364.845-.213.138-.68 1.219-.809 1.874-.146.744-.56 1.55-.796 1.55-.159 0-.289.271-.289.602 0 .331-.149.694-.331.806-.183.113-.261.39-.174.616.087.226-.042.577-.285.779-.244.202-.367.492-.274.643.094.151.038.275-.125.275-.283 0-.827 1.459-.722 1.938.027.128-.085.232-.25.232-.165 0-.22.21-.122.466.098.255.039.465-.131.465-.276 0-.615.839-.874 2.165-.049.252-.237.508-.418.569-.181.06-.25.237-.154.393.097.156.004.284-.205.284s-.286.093-.172.207c.114.115-.008.537-.271.939-.264.402-.405.851-.315.998.091.146-.041.437-.293.646-.252.209-.388.495-.302.634.086.14.013.343-.164.452-.176.108-.239.327-.141.486.098.159.03.289-.15.289-.181 0-.329.279-.329.62 0 .341-.162.62-.361.62-.199 0-.27.092-.158.204.112.112.079.356-.073.543-.153.186-.436.931-.63 1.656-.193.725-.494 1.318-.668 1.318-.174 0-.231.139-.125.31.105.171.02.31-.189.31s-.292.088-.184.196c.108.108-.009.487-.258.844-.25.357-.454.818-.454 1.024 0 .207-.163.769-.362 1.249-.199.48-.377.943-.396 1.028-.02.085-.437.992-.928 2.016-.491 1.023-.865 2.035-.83 2.248.034.213-.092.387-.28.387-.188 0-.263.129-.166.285.097.157-.039.501-.303.765-.263.263-.457.518-.431.567.026.049-.178.629-.454 1.289-.276.661-.502 1.393-.502 1.628 0 .235-.139.428-.31.428-.17 0-.31.255-.31.568 0 .313-.096.665-.215.783-.118.118-.258.505-.313.86-.054.354-.368.987-.698 1.407-.33.419-.523.963-.429 1.208.094.245.008.445-.19.445-.199 0-.283.128-.186.285.097.157-.044.506-.314.775-.269.27-.407.49-.306.49.101 0-.099.553-.443 1.228-.345.676-.627 1.443-.627 1.706 0 .262-.139.477-.31.477-.17 0-.31.256-.31.569 0 .312-.097.665-.215.783s-.258.501-.311.851c-.054.349-.306.844-.561 1.099-.255.255-.463.802-.463 1.216 0 .415-.148.753-.329.753-.18 0-.249.129-.152.286.097.156-.044.505-.314.775-.269.269-.41.49-.312.49.098 0-.102.521-.443 1.158-.341.637-.621 1.405-.621 1.705 0 .301-.139.548-.31.548-.17 0-.31.235-.31.522 0 .287-.272 1.09-.604 1.783-.69 1.439-1.318 2.964-1.424 3.457-.04.185-.437 1.021-.883 1.858-.445.837-.81 1.767-.81 2.067 0 .3-.139.545-.31.545-.171 0-.31.295-.31.656 0 .36-.277 1.163-.615 1.783-.581 1.065-1.131 2.394-1.205 2.912-.018.129-.456 1.071-.972 2.093s-.858 1.859-.761 1.859c.178 0 .021.347-1.506 3.333-.458.896-.833 1.907-.833 2.248 0 .341-.147.62-.328.62-.181 0-.242.14-.137.31.106.171.036.31-.155.31-.19 0-.26.14-.155.31.106.171.036.31-.155.31-.19 0-.276.115-.189.255.086.14-.122.714-.464 1.275-.341.562-.547 1.095-.457 1.185.09.09-.024.527-.254.972-.538 1.044-1.334 2.91-1.373 3.224-.017.134-.247.459-.51.722-.264.264-.399.609-.302.767.098.158-.042.507-.31.775s-.408.616-.311.773c.097.157.02.285-.171.285s-.257.146-.146.324c.11.178.04.515-.155.75-.28.338-.238.405.206.32.308-.058.56-.128.56-.154 0-.067 1.167-.34 1.628-.38.213-.018.388-.164.388-.325 0-.16.209-.211.465-.113.256.098.465.029.465-.155 0-.183.205-.255.455-.159.251.096.539.039.642-.127.102-.165.312-.223.466-.128.154.095.627-.054 1.05-.332.424-.278.932-.405 1.129-.283.197.122.451.071.564-.112.113-.183.621-.41 1.128-.503.508-.094 1.341-.249 1.853-.346.511-.096 1.063-.306 1.225-.466.162-.16.673-.292 1.137-.292.463 0 .896-.162.963-.361.066-.199.566-.362 1.111-.362.544 0 .99-.125.99-.277 0-.152.136-.193.302-.09.165.102.658-.048 1.094-.334.437-.286.882-.433.988-.326.107.107.353.063.546-.097.193-.16.764-.368 1.269-.461.505-.093 1.285-.24 1.734-.325.449-.086 1.206-.359 1.683-.606.477-.247.997-.369 1.156-.271.16.098.4 0 .536-.219.135-.219.677-.385 1.205-.37.528.015.96-.099.96-.253 0-.153.195-.204.434-.113.238.092.527.015.641-.17.115-.185.338-.256.497-.158.159.099.289.016.289-.183s.192-.287.427-.197c.235.09.549.043.698-.104.148-.147.619-.335 1.045-.419 2.242-.441 2.986-.643 3.668-.997.413-.214.942-.316 1.177-.226.234.09.426.01.426-.179s.489-.343 1.086-.343c.597 0 1.085-.136 1.085-.301 0-.165.195-.225.434-.134.238.092.527.015.641-.17.115-.184.338-.256.497-.157.158.098.288.015.288-.184 0-.198.196-.286.435-.194.239.091.53.072.646-.045.116-.116.304-.223.418-.238.114-.014.416-.108.672-.207.256-.099.884-.264 1.395-.366 1.055-.211 1.247-.27 2.326-.708.426-.174.949-.249 1.163-.168.213.081.387-.007.387-.196s.489-.343 1.086-.343c.596 0 1.085-.117 1.085-.259 0-.142.209-.281.465-.31l.93-.103c.256-.029.465-.183.465-.343 0-.161.196-.217.435-.125s.53.072.646-.044c.116-.117.304-.224.418-.238.114-.015.416-.109.672-.208a9.31 9.31 0 011.24-.333c1.489-.293 2.134-.477 2.693-.764.31-.16.737-.228.951-.151.213.076.387.017.387-.131 0-.149.448-.304.996-.346.547-.042 1.071-.176 1.162-.299.092-.122.342-.257.555-.3l.775-.155c.214-.042.471-.191.573-.329.102-.139.626-.265 1.163-.28.538-.015.978-.131.978-.257s.453-.298 1.007-.383c1.467-.225 2.285-.449 2.963-.811.33-.177.675-.245.769-.152.093.093.489-.002.88-.211.391-.21.926-.409 1.189-.443 1.139-.146 2.494-.562 2.494-.764 0-.212.482-.315 1.628-.347.298-.008.543-.169.543-.357 0-.189.082-.26.183-.16.1.101.728-.009 1.395-.244.667-.236 1.212-.361 1.212-.279 0 .082.401-.058.891-.311.49-.254.967-.386 1.059-.293.092.092.488-.004.879-.213s.926-.408 1.189-.442c1.138-.147 2.494-.563 2.494-.765 0-.212.482-.314 1.628-.347.298-.008.542-.146.542-.306 0-.159.105-.259.233-.221.223.067 2.835-.567 3.798-.921a7.852 7.852 0 011.086-.284 6.107 6.107 0 001.085-.31c.256-.109.701-.245.99-.302.288-.057 1.125-.321 1.86-.587.735-.267 1.615-.538 1.956-.603.341-.065 1.178-.332 1.861-.592.682-.261 1.546-.48 1.919-.488.374-.007.766-.153.871-.323.106-.171.574-.311 1.042-.311.467 0 1.017-.167 1.222-.372.205-.204.372-.282.372-.171 0 .11.802-.081 1.783-.425.981-.344 2.01-.674 2.288-.734.278-.059 1.185-.344 2.016-.633.83-.289 1.719-.554 1.975-.588.617-.084 2.209-.494 2.791-.719.256-.099.569-.209.697-.245.128-.037.303-.101.388-.144.185-.092.335-.134 1.55-.437.512-.127 1.21-.346 1.551-.486.607-.25 4.039-1.309 4.651-1.436.17-.035.798-.154 1.395-.265.597-.11 1.207-.322 1.356-.469.149-.148.463-.195.698-.105.235.09.427.01.427-.179s.105-.321.232-.293c.34.075 1.752-.314 4.729-1.302 1.45-.481 3.191-.958 3.87-1.061.679-.103 1.359-.312 1.511-.464.152-.152.468-.202.703-.112.235.09.428.002.428-.197s.139-.276.31-.17c.17.105.484.083.697-.051.214-.133.667-.281 1.008-.329a5.112 5.112 0 001.241-.385c.948-.457 4.662-1.589 5.395-1.644.358-.027.651-.124.652-.215 0-.092.443-.198.984-.236.541-.038 1.091-.244 1.223-.456.131-.213.334-.292.45-.176.116.116.685.014 1.263-.228.578-.242 1.119-.443 1.202-.447.503-.027 1.903-.454 2.172-.662.174-.136.663-.295 1.085-.353.422-.058.951-.22 1.176-.361.224-.141.49-.173.591-.072.101.1.362.035.579-.145.218-.181.923-.394 1.568-.474.644-.08 1.274-.311 1.399-.513s.322-.272.438-.156c.116.116.682.015 1.257-.226.576-.24 1.046-.386 1.046-.325s.907-.217 2.016-.619c1.108-.402 2.015-.652 2.015-.555 0 .097.213 0 .473-.216.26-.215.557-.307.661-.204.103.104.484.025.845-.175.361-.201 1.075-.416 1.587-.478.512-.063.977-.243 1.034-.4.057-.158.379-.287.717-.287.718 0 3.384-.78 4.86-1.423.565-.246 1.149-.373 1.296-.282.147.091.361.014.475-.171.114-.185.403-.262.642-.17.238.091.433.023.433-.152 0-.176.13-.239.289-.141.159.098.376.037.484-.136.107-.174.674-.316 1.261-.316.587 0 1.067-.116 1.067-.258 0-.142.175-.27.388-.285.738-.051 4.112-1.029 6.067-1.759.736-.275 1.469-.419 1.628-.32.159.098.289.022.289-.168 0-.191.13-.267.289-.169.159.099.376.037.483-.136.107-.174.675-.315 1.262-.315.606 0 1.067-.157 1.067-.362 0-.199.092-.27.204-.158.112.112.395.046.628-.147.233-.194.508-.267.612-.164.103.104.462.042.796-.137.334-.179 1.013-.376 1.509-.439s1.387-.345 1.981-.627c.594-.281 1.431-.532 1.861-.557.429-.025.781-.158.781-.296 0-.138.13-.171.289-.072.159.098.382.027.496-.158.115-.185.386-.268.603-.185.218.084.762-.038 1.209-.27.448-.233.814-.344.814-.248 0 .096.213-.002.473-.218.26-.215.556-.308.659-.205.103.103.553.002 1-.223.448-.226.988-.348 1.201-.272.214.076.388-.021.388-.216s.138-.269.307-.165c.168.104.793-.041 1.389-.324.595-.283 1.434-.534 1.863-.559.43-.025.782-.158.782-.296 0-.138.13-.17.289-.072.158.098.382.027.496-.158.114-.185.386-.268.603-.185.218.084.762-.038 1.209-.27.448-.233.814-.344.814-.248 0 .096.213-.002.473-.217.259-.216.556-.309.659-.206.103.103.553.002 1-.223.448-.226.988-.348 1.201-.272.213.076.388-.021.388-.216s.13-.274.289-.175c.16.098.823-.029 1.473-.283.651-.253 1.579-.528 2.063-.61.484-.082 1.055-.294 1.269-.472.214-.177.478-.234.586-.126.108.108.409.02.669-.196.26-.215.473-.288.473-.161 0 .127.23.039.512-.195.282-.234.56-.394.617-.356.057.038.28.015.495-.052.215-.066.81-.225 1.321-.354 1.272-.318 1.384-.351 1.473-.428.043-.037.566-.136 1.163-.22.596-.084 1.224-.265 1.395-.402.171-.137 1.113-.427 2.093-.643.981-.217 1.783-.527 1.783-.688 0-.162.187-.223.415-.135.228.088.821-.016 1.318-.231 1.309-.565 3.88-1.375 4.779-1.505 1.02-.148 4.411-1.163 4.806-1.439.171-.119.729-.243 1.24-.275.512-.033.977-.197 1.034-.367.057-.169.341-.307.631-.307s1.332-.283 2.316-.628c.983-.346 1.92-.547 2.082-.447.162.1.294.01.294-.199 0-.209.081-.299.18-.2.154.155 2.064-.349 3.541-.934.44-.174 1.231-.341 2.093-.441.213-.025.388-.161.388-.303s.249-.259.553-.259c.304 0 1.328-.272 2.274-.604.946-.333 2.103-.675 2.571-.759.819-.149 2.629-.667 3.594-1.029.451-.169 1.302-.354 2.093-.453.213-.027.387-.188.387-.359 0-.17.087-.224.192-.118.105.105.899-.078 1.764-.406.866-.329 1.639-.533 1.718-.453.08.08.309.009.51-.158.201-.166.873-.368 1.493-.447.621-.08 1.412-.296 1.757-.481.346-.185.628-.256.628-.159s.314.004.698-.208c.384-.211.93-.349 1.213-.306.283.043.607-.07.719-.252.112-.181.334-.249.493-.151.158.098.288.007.288-.202 0-.209.082-.298.181-.199.1.1.937-.079 1.861-.396.923-.318 1.679-.512 1.679-.432 0 .08.415-.068.921-.33.507-.262 1.03-.458 1.163-.436a.888.888 0 00.397-.023c.085-.034.561-.128 1.057-.209.497-.08 1.175-.337 1.509-.571.333-.233.801-.35 1.039-.258.239.091.629.004.868-.194s.83-.437 1.314-.529c1.298-.25 1.8-.366 1.887-.435.043-.035.217-.098.388-.14.17-.043.345-.106.387-.14.114-.092 1.256-.357 1.706-.395.213-.019.387-.165.387-.325 0-.161.21-.212.466-.114.255.099.465.029.465-.155 0-.183.205-.255.455-.158.25.096.539.038.641-.127.103-.166.313-.224.467-.129.154.095.626-.054 1.05-.332.424-.277.932-.405 1.129-.283.197.122.451.072.564-.112.113-.183.621-.409 1.128-.503l1.852-.345c.512-.097 1.063-.307 1.225-.467.162-.16.674-.291 1.137-.291.464 0 .897-.163.963-.362.067-.199.567-.362 1.111-.362.545 0 .991-.124.991-.277 0-.152.135-.193.301-.09.166.102.659-.048 1.095-.334.437-.286.881-.432.988-.326.107.107.353.064.546-.097.193-.16.764-.368 1.269-.461.504-.093 1.284-.239 1.733-.325.449-.086 1.207-.358 1.684-.606.476-.247.997-.369 1.156-.271.159.099.4 0 .535-.219.136-.218.678-.385 1.206-.37.528.015.96-.099.96-.252 0-.154.195-.205.433-.114.239.092.528.015.642-.169.114-.185.338-.256.497-.158.158.098.288.015.288-.184 0-.198.192-.287.428-.197.235.09.549.044.697-.103.149-.147.619-.336 1.046-.42 2.241-.441 2.985-.643 3.668-.997.413-.214.942-.315 1.177-.225.234.09.426.009.426-.18s.488-.343 1.085-.343 1.086-.135 1.086-.301c0-.165.195-.225.433-.134.239.092.528.016.642-.169.114-.185.338-.256.496-.158.159.098.289.015.289-.183 0-.199.196-.287.435-.195.239.092.53.072.646-.044.116-.117.304-.224.418-.238a4.12 4.12 0 00.672-.208c.255-.099.883-.264 1.395-.366 1.055-.211 1.247-.269 2.326-.708.426-.174.949-.249 1.162-.168.213.081.388-.007.388-.196s.488-.343 1.085-.343 1.085-.135 1.085-.3c0-.166.196-.226.434-.134.239.091.527.015.642-.17.114-.185.338-.256.496-.158.159.098.289.016.289-.183s.196-.287.435-.195c.239.092.53.072.646-.044.116-.116.304-.224.418-.238.113-.015.416-.108.671-.208.256-.099.884-.264 1.396-.366 1.055-.211 1.247-.269 2.325-.708.427-.173.95-.249 1.163-.168.213.081.388-.007.388-.196s.488-.343 1.085-.343 1.085-.116 1.085-.258c0-.142.21-.282.465-.31l.931-.104c.255-.028.465-.183.465-.343 0-.16.195-.217.435-.125.239.092.529.072.646-.044.116-.116.304-.223.417-.238.114-.015.417-.108.672-.208a9.287 9.287 0 011.241-.333c1.488-.293 2.134-.476 2.693-.764.309-.16.737-.227.95-.151.213.076.388.018.388-.131 0-.148.448-.304.995-.346.548-.041 1.071-.176 1.163-.298a.861.861 0 01.477-.275c.88-.146 1.258-.282 1.426-.51.102-.139.625-.264 1.163-.28.537-.015.977-.131.977-.256 0-.126.454-.299 1.008-.384 1.467-.224 2.285-.448 2.962-.811.33-.176.676-.245.769-.152.093.094.489-.002.881-.211.391-.209.926-.408 1.189-.442 1.138-.147 2.494-.563 2.494-.765 0-.212.482-.314 1.627-.346.299-.009.543-.146.543-.306s.105-.263.233-.228c.927.25 3.422-.834 3.296-1.432-.076-.356-.213-1.41-.306-2.342-.093-.933-.263-1.84-.378-2.016-.183-.281-.287-.986-.388-2.645a3.823 3.823 0 00-.204-.93c-.284-.75-.743-3.585-.791-4.884-.008-.213-.115-.388-.237-.388-.122 0-.232-.384-.245-.852-.024-.93-.261-2.714-.36-2.714-.067 0-.302-1.581-.345-2.325-.015-.256-.17-1.024-.345-1.706a23.132 23.132 0 01-.434-2.093c-.366-2.687-.741-4.987-.949-5.814l-.311-1.24c-.065-.256-.18-.988-.256-1.627a26.806 26.806 0 00-.322-2.016 58.272 58.272 0 01-.588-3.179c-.066-.426-.18-.984-.251-1.24-.072-.256-.228-1.023-.347-1.705-.119-.683-.362-2.008-.54-2.946-.179-.938-.368-2.124-.422-2.636a13.892 13.892 0 00-.302-1.705c-.112-.427-.263-1.298-.335-1.938a23.208 23.208 0 00-.325-2.015 48.714 48.714 0 01-.438-2.404c-.134-.853-.338-1.899-.453-2.325a15.235 15.235 0 01-.324-1.706c-.063-.511-.136-.93-.161-.93-.026 0-.083-.419-.128-.93-.044-.512-.228-1.444-.408-2.072-.179-.628-.257-1.212-.171-1.297.085-.086-.009-.654-.21-1.262-.201-.609-.412-1.56-.469-2.114-.057-.554-.132-1.007-.166-1.007s-.101-.419-.148-.93a17.892 17.892 0 00-.294-1.861 26.52 26.52 0 01-.358-2.295c-.083-.75-.264-1.587-.404-1.86-.139-.273-.226-.81-.193-1.194.034-.383-.03-.697-.141-.697-.111 0-.21-.384-.22-.853a10.432 10.432 0 00-.234-1.783 15.305 15.305 0 01-.282-1.613c-.036-.376-.156-.773-.266-.883-.11-.11-.127-.39-.038-.622.089-.233.013-.882-.169-1.443a17.09 17.09 0 01-.516-2.261c-.28-1.884-.392-2.48-.465-2.48-.063 0-.254-1.584-.319-2.636a3.777 3.777 0 00-.204-.93c-.272-.719-.37-1.259-.562-3.084-.098-.928-.274-1.835-.391-2.015-.118-.18-.245-.677-.284-1.103-.106-1.17-.326-2.636-.395-2.636-.034 0-.109-.348-.167-.775-.309-2.282-.491-3.317-.683-3.876a7.623 7.623 0 01-.294-1.395c-.135-1.281-.341-2.631-.415-2.713-.038-.043-.089-.322-.113-.62-.024-.299-.146-.705-.272-.903-.126-.197-.146-.574-.046-.837.101-.264.074-.657-.061-.876a2.687 2.687 0 01-.312-.867c-.036-.259-.138-1.029-.227-1.711a39.294 39.294 0 00-.689-3.876 18.27 18.27 0 01-.287-1.551 16.295 16.295 0 00-.302-1.55c-.11-.426-.264-1.333-.344-2.015-.16-1.372-.241-1.804-.557-2.946-.117-.427-.265-1.264-.328-1.861a15.556 15.556 0 00-.317-1.86c-.112-.426-.269-1.333-.348-2.016-.16-1.371-.242-1.803-.557-2.945-.118-.427-.265-1.264-.328-1.861s-.214-1.434-.336-1.86c-.121-.427-.265-1.264-.319-1.861-.104-1.137-.244-1.883-.714-3.783-.157-.631-.222-1.21-.145-1.286.077-.077-.029-.747-.234-1.489-.205-.742-.41-1.698-.455-2.124-.045-.426-.113-.775-.152-.775-.039 0-.097-.349-.128-.775-.03-.427-.175-1.334-.321-2.016-.147-.682-.24-1.354-.207-1.492.032-.139-.099-.836-.291-1.55-.501-1.859-.602-2.37-.783-3.935-.216-1.86-.338-2.635-.418-2.635-.036 0-.125-.628-.198-1.396-.073-.767-.222-1.604-.331-1.86-.287-.673-.41-1.239-.575-2.636-.156-1.318-.375-2.48-.469-2.48-.031 0-.107-.663-.17-1.472-.062-.81-.309-2.205-.549-3.101-.241-.896-.452-1.908-.47-2.249-.048-.905-.185-1.503-.437-1.907-.123-.196-.222-.684-.22-1.085.007-1.319-.055-1.963-.233-2.434-.265-.7-.359-1.234-.547-3.079-.094-.926-.288-1.833-.431-2.016-.143-.182-.26-.541-.261-.797 0-.256-.104-1.023-.232-1.705a27.022 27.022 0 01-.31-2.171c-.044-.511-.114-1-.157-1.085-.043-.085-.059-.269-.035-.407.024-.139-.126-.837-.333-1.551-.207-.714-.416-1.647-.464-2.073-.161-1.426-.351-2.636-.413-2.636-.067 0-.302-1.581-.345-2.325-.015-.256-.149-.954-.297-1.551l-.27-1.085-2.817-.009c-1.549-.004-2.878.053-2.954.128" fill="#fcd45c" fill-rule="evenodd"/></svg>