<svg version="1.0" xmlns="http://www.w3.org/2000/svg" width="1453.333" height="2426.667" viewBox="0 0 1090 1820"><path d="M23 .9C14.5 3.5 6.7 10.3 2.8 18.5.5 23.4 0 25.8 0 32.1 0 41.9 2.1 47.7 7.7 54c16.5 18.4 45.6 14.3 56.4-7.9 1.9-3.7 2.3-6.3 2.4-13.6 0-8.5-.2-9.4-3.6-15.5-4-7.3-10.6-13-17.8-15.5C40.4-.1 27.4-.4 23 .9zm256 0c-9.7 3.1-18.7 11.6-21.6 20.4-2.3 6.7-2.2 15.8.1 22.7 2.5 7.6 11.8 16.9 19.5 19.6 16.8 5.7 34.7-1.2 42.2-16.3 2.9-6 3.3-7.7 3.3-14.8 0-9.7-3-17.1-9.4-23.3C306.5 2.8 301 .6 290.5.3c-4.9-.1-10.1.1-11.5.6zm251.5 2c-6.9 3.2-13.7 10.1-16.8 16.9-3.2 7.1-3 18.9.5 26.4 4.7 10.2 13.6 16.8 25.6 19 5 .9 7.2.8 12.8-.5 11.6-2.9 18.9-8.9 23.7-19.5 3-6.6 3-18.8 0-25.4-3.1-6.8-9.9-13.7-16.8-16.9C554.4.4 552.3 0 545 0s-9.4.4-14.5 2.9zm257.9-1.2c-14.2 6.1-22.4 19.2-21.1 33.6 2 21.9 24.2 35.6 45.7 28.3 7.7-2.7 16.9-11.9 19.5-19.6 4-11.7 1.7-24.3-6.2-33C819.3 3.2 813.6.7 802 .3c-7.3-.2-10.4.1-13.6 1.4zm256.1-.2c-7 2.6-13.5 8.4-17.4 15.5-3.4 6.1-3.6 7-3.6 15.5.1 7.3.5 9.9 2.4 13.6 10.8 22.2 39.9 26.3 56.4 7.9 5.6-6.3 7.7-12.1 7.7-21.9 0-6.3-.5-8.7-2.8-13.6-3.1-6.5-8.6-12.1-15.4-15.6-5.5-2.9-21.1-3.7-27.3-1.4zM22.8 251.9c-10.1 3.3-18 10.8-21.3 20.1-.8 2.4-1.5 7.7-1.5 12 0 6.6.4 8.6 3.1 13.8 3.7 7.5 10.2 13.4 17.8 16.3 8 3 20.4 2.4 27.8-1.4 6.9-3.6 12-8.8 15.2-15.6 2.2-4.7 2.6-7 2.6-14.1 0-7.3-.4-9.3-2.8-14.2-7.1-14.5-25.4-22.1-40.9-16.9zm257.9-.9c-5.8 1.5-11.4 4.7-15.7 9-16.7 16.7-10.4 45.7 11.9 54.1 7.9 3 20.4 2.4 27.6-1.3 6.2-3.2 12.9-10.3 15.8-16.6 3.2-7.2 3-18.9-.4-26.2-3.7-7.9-8.1-12.5-15.3-16-6.9-3.4-17.1-4.7-23.9-3zm256 0c-9.7 2.5-17.5 8.7-21.9 17.7-2.7 5.5-3.2 7.7-3.2 13.7-.1 10.4 2.5 16.8 9.3 23.7 16.6 16.5 44.7 12 54.8-8.9 2.2-4.7 2.7-7.1 2.8-13.7 0-7.1-.4-8.8-3.3-14.7-3.6-7.5-8.9-12.4-16.6-15.8-5.4-2.4-16.3-3.4-21.9-2zm255.2.3c-10.3 2.9-17.1 8.8-21.8 18.7-3.4 7.3-3.6 19.1-.4 26.2 2.9 6.3 9.6 13.4 15.8 16.6 7.2 3.7 19.7 4.3 27.7 1.2 22.4-8.4 28.6-37.2 11.7-54.1-8-8-22.1-11.7-33-8.6zm256 0c-10 2.8-18.2 9.7-22.3 18.6-3.2 7-3 19.7.5 27.2 3.2 6.8 8.3 12 15.2 15.6 7.4 3.8 19.8 4.4 27.8 1.4 7.8-3 14.1-8.8 18-16.6 2.9-5.9 3.1-6.9 2.7-15.2-.4-10.3-2.6-15.9-8.9-22.2-8.2-8.1-22.1-11.9-33-8.8zM22.8 502.3C8.2 507.8 1 517.1.2 531.6c-.8 14.9 5 25.4 17.5 31.6 6.1 3 7.6 3.3 15.8 3.3 7.8 0 9.7-.4 14.6-2.8 6.6-3.2 13.2-9.9 16.2-16.5 3.4-7.3 3.1-19.8-.6-27.3-3.2-6.7-10-13.2-16.5-16.2-5.9-2.6-19-3.4-24.4-1.4zm255.2.3c-14.1 5.1-22.3 16.7-22.4 31.6 0 13.4 6.8 23.8 19.4 29.7 4.7 2.2 6.8 2.6 14.5 2.6 7.9-.1 9.7-.4 14.8-3 6.8-3.4 12.9-9.7 15.9-16.3 1.6-3.5 2.2-6.8 2.2-13.2.1-7.4-.3-9.3-2.7-14.1-3.2-6.7-10-13.2-16.5-16.2-6.3-2.8-19-3.3-25.2-1.1zm256.5-.3c-5 1.7-11.2 5.6-14.7 9.3-8.2 8.8-10.7 24.5-5.7 35.4 3.6 7.7 7.7 12.1 15.1 16.1 5.9 3.2 6.9 3.4 15.8 3.4 7.8-.1 10.3-.5 14.1-2.3 7.2-3.5 12.5-8.7 15.8-15.2 8.6-17.3 2-36.6-15.5-45-5.9-2.9-18.7-3.7-24.9-1.7zm255.8.1c-8.9 2.9-16.7 9.9-20.6 18.5-3 6.5-2.9 19.6.1 26.3 3 6.6 9.1 12.9 15.9 16.3 5.1 2.6 6.9 2.9 14.8 3 7.7 0 9.8-.4 14.5-2.6 7.9-3.7 12.5-8.1 16.2-15.6 2.7-5.6 3.2-7.5 3.2-14.3 0-6.8-.5-8.7-3.3-14.4-3.5-7.1-8.6-12.2-16-15.7-5.7-2.8-18.6-3.6-24.8-1.5zm254.9.4c-14.1 5-23.1 19-22 33.7 1 11.7 8 22 18.7 27.2 4.9 2.4 6.8 2.8 14.6 2.8 8.2 0 9.7-.3 15.8-3.3 12.5-6.2 18.3-16.7 17.5-31.6-.7-12.9-6.1-21.1-18.1-27.3-7-3.6-18.7-4.2-26.5-1.5zM20.4 754c-7.2 2.9-13.7 8.9-17.3 16.2C.4 775.4 0 777.4 0 784c0 11 2.1 16.2 9.4 23.6 7.5 7.5 13.5 9.9 24.7 9.9 6.5 0 8.5-.5 14.2-3.3 7.2-3.6 12.3-8.7 15.9-16.1 1.9-3.8 2.3-6.2 2.3-13.6-.1-7.8-.4-9.7-2.8-14.3-3.4-6.5-9.2-12.3-15.5-15.3-6.8-3.3-20.7-3.7-27.8-.9zm255.6.2c-7.7 3-16.1 11.5-18.5 18.8-6.5 19.2 3.9 38.6 23.4 43.6 15.7 4 31.3-3.1 38.3-17.4 2.9-5.9 3.3-7.6 3.3-14.7-.1-9.7-2.5-15.9-8.8-22.3-6.8-7-12.6-9.5-23.2-9.9-7.4-.3-10 .1-14.5 1.9zm259-1.3c-9 2.9-17.5 10.4-21.3 18.9-3.2 7.1-3 18.9.5 26.3 6.6 14.2 21.7 22 37 18.9 11.7-2.3 19.8-8.5 24.6-18.9 2.2-4.6 2.6-7.1 2.6-13.6 0-9.6-2.1-15.1-8.5-22-6.7-7.3-12.6-9.8-23.4-10.2-4.9-.1-10.1.1-11.5.6zm256 0c-9 2.9-17.4 10.3-21.2 18.6-1.7 3.8-2.2 6.9-2.3 13 0 7.1.4 8.8 3.3 14.7 11.3 22.9 43.8 24.9 58.1 3.6 8.9-13.2 7-31.1-4.4-41.6-7.2-6.7-11.7-8.5-22-8.9-4.9-.1-10.1.1-11.5.6zm254 .8c-8.6 3-14.2 8.1-19.1 17.3-3.3 6.5-3.4 20.4-.1 27.1 3.7 7.5 8.7 12.5 15.9 16.1 5.7 2.8 7.7 3.3 14.2 3.3 11.2 0 17.2-2.4 24.7-9.9 7.3-7.4 9.4-12.6 9.4-23.6 0-6.6-.4-8.6-3.1-13.8-5.9-11.8-16.6-18.2-30.2-18.2-4 .1-9.2.8-11.7 1.7zM24.1 1003.5c-7.1 2-11 4.5-16.5 10.6-5.5 6.2-7.6 12.1-7.6 21.8 0 9.8 3.5 17.7 10.5 23.9 7.1 6.2 14 8.5 24.5 8 13.5-.7 22.7-6.5 28.7-18 2.4-4.6 2.7-6.5 2.8-14.3 0-7.4-.4-9.8-2.3-13.6-7.4-15.1-24.2-22.8-40.1-18.4zm255.9 0c-14.6 4.1-24.1 16.3-24.3 31.5-.2 12.7 6.1 23.2 17.5 29.5 4.9 2.8 6 3 15.8 3 9.4 0 11-.3 15.5-2.7 6.8-3.5 12.3-9.2 15.4-15.8 3.7-7.9 3.7-19.2 0-27-3.7-7.9-8.1-12.5-15.2-16-7.8-3.7-16.8-4.6-24.7-2.5zm256.5-.1c-10.3 2.5-17.9 8.8-22.3 18.5-3.5 7.4-3.7 19.2-.5 26.3 2.8 6.2 9.6 13.4 15.8 16.6 4.5 2.4 6.1 2.7 15.5 2.7s11-.3 15.5-2.7c6.2-3.2 13-10.4 15.8-16.6 3.2-7.1 3-18.9-.5-26.3-4.6-10-12.8-16.5-23.6-18.8-6.5-1.3-9.2-1.3-15.7.3zm256.7-.3c-5.8 1.1-13.7 5.6-17.4 9.8-8.6 9.8-10.9 24.8-5.7 36.1 3.1 6.6 8.6 12.3 15.4 15.8 4.5 2.4 6.1 2.7 15.5 2.7 11.9 0 15.6-1.4 23.5-8.7 18.7-17.1 10-48.8-15-55.3-6.4-1.6-9.7-1.7-16.3-.4zm255.2 0c-6.3 1.5-14.5 6.9-18.5 12.3-12.6 16.7-6.9 40.7 11.9 49.7 7 3.3 19.8 3.8 27.3 1 7.8-3 14.5-9.1 18-16.6 2.4-4.9 2.9-7.3 2.9-13.6 0-10.9-2.1-16.1-9.4-23.5-4.3-4.3-7.6-6.6-11.1-7.8-6.2-2.1-15.7-2.8-21.1-1.5zM23.3 1254.4c-15.9 5.2-24 17.1-23.1 34 .7 12.9 6 21 18.1 27.3 4.6 2.5 6.3 2.8 14.7 2.8 8.4 0 10.2-.3 15.1-2.8 6.6-3.2 13.2-9.9 16.2-16.5 3.4-7.3 3.1-19.8-.6-27.3-3.2-6.7-10-13.2-16.5-16.2-5.9-2.6-18-3.3-23.9-1.3zm256 0c-15.1 4.9-23.7 16.4-23.7 31.7 0 6.7.5 8.6 3.3 14.3 3.5 7.1 8.5 12.1 16 15.8 3.8 1.9 6.2 2.3 14.1 2.3 8.4 0 10.2-.3 15.1-2.8 6.6-3.2 13.2-9.9 16.2-16.5s2.9-19.7-.1-26.4c-2.9-6.5-9.1-12.9-15.6-16.2-6.7-3.4-18.6-4.4-25.3-2.2zm257.2-.5c-9.6 2.5-17.2 8.7-21.7 17.8-2.8 5.8-3.3 7.7-3.2 14.3 0 13.3 6.8 24.1 18.9 30 6.9 3.4 21.6 3.6 28.6.4 25.9-12 25.9-48.3.1-60.5-5-2.3-17.4-3.4-22.7-2zm254.5.4c-9.1 2.6-17.3 9.8-21.3 18.6-2.9 6.6-3 19.8 0 26.3 3 6.6 9.6 13.3 16.2 16.5 4.9 2.5 6.7 2.8 15.1 2.8 7.9 0 10.3-.4 14.1-2.3 7.5-3.7 12.5-8.7 16-15.8 2.8-5.7 3.3-7.6 3.3-14.3 0-13.2-6.3-23.5-18-29.2-7.5-3.7-17.9-4.8-25.4-2.6zm254.2.5c-14.1 5.1-23.1 19-22 33.7 1 11.7 8 22 18.7 27.2 4.9 2.5 6.7 2.8 15.1 2.8 8.4 0 10.1-.3 14.7-2.8 12.1-6.3 17.4-14.4 18.1-27.3.5-10-1.3-16.4-6.8-23.3-8.1-10.2-25.1-14.8-37.8-10.3zM20.4 1506c-7.2 2.9-13.7 8.9-17.3 16.2-2.7 5.2-3.1 7.2-3.1 13.8 0 11.1 2.1 16.2 9.5 23.7 5.3 5.3 7.1 6.4 13.4 8.3 5.7 1.8 8.6 2.1 13.4 1.6 12-1.2 22.4-8.3 27.4-18.4 2.4-4.9 2.8-6.9 2.8-14.2 0-7.1-.4-9.4-2.6-14.1-3.2-6.8-8.3-12-15.2-15.6-7.2-3.7-20.7-4.3-28.3-1.3zm256 0c-22 8.7-27.9 37.5-11.3 54.1 6.6 6.6 13.7 9.4 23.9 9.4 7 0 9.5-.5 14-2.6 7.9-3.7 12.5-8.1 16.2-15.7 2.9-5.9 3.3-7.6 3.3-14.7-.1-9.6-2.2-15.1-8.6-22-6.7-7.2-12.6-9.8-23.4-10.2-7.2-.2-10 .1-14.1 1.7zm255.6.2c-7.6 2.9-16 11.5-18.6 18.8-5.9 17.3 1.6 34.7 18.2 42.2 6.9 3.2 19.9 3.2 26.8 0 8-3.6 13.1-8.5 16.8-16 2.9-5.9 3.3-7.6 3.3-14.7-.1-10.1-3.3-17.3-10.6-23.9-9.4-8.5-23.8-11-35.9-6.4zm259-1.3c-8.7 2.7-17.5 10.4-21.3 18.9-1.6 3.5-2.1 6.8-2.2 12.7 0 7.1.4 8.8 3.3 14.7 3.7 7.6 8.3 12 16.2 15.7 8 3.7 20.1 3.7 28.1-.1 21.7-10.1 26.2-38.5 8.6-54.4-6.4-5.8-13.8-8.4-23-8.3-4 0-8.3.4-9.7.8zm256 0c-9.2 2.8-16.9 9.4-20.9 18-2.2 4.7-2.6 7-2.6 14.1 0 7.3.4 9.3 2.8 14.2 8.9 18.2 33.5 24.2 50.2 12.3 9.3-6.6 13.5-15.1 13.5-27.5 0-6.6-.4-8.6-3.1-13.8-5.9-11.8-16.6-18.3-30.2-18.1-4 0-8.3.4-9.7.8zM26.4 1755c-10.5 2.1-21.6 11.4-24.8 20.7-.9 2.6-1.6 7.9-1.6 12.2 0 6.3.5 8.7 2.8 13.6 3.1 6.5 8.7 12.1 15.4 15.6 5.8 3.1 19.5 3.8 26.4 1.5 7.6-2.5 14.2-8.2 18.3-15.6 3.4-6.1 3.6-7 3.6-15.5-.1-7.2-.5-9.9-2.3-13.5-4.9-10.1-12.4-16.1-23.1-18.6-6.2-1.5-8.7-1.6-14.7-.4zm255.7 0c-7.1 1.5-12.7 4.8-18 10.6-8.1 8.9-10.6 21.3-6.7 33.1 2.2 6.6 9.2 14.5 16 18.1 4.6 2.4 6.1 2.7 15.6 2.7 12.1 0 16.9-1.7 24.1-8.7 6.4-6.2 9.4-13.6 9.4-23.3 0-7.1-.4-8.8-3.3-14.7-3.8-7.7-9.4-12.9-17.1-15.9-6.2-2.3-14.2-3.1-20-1.9zm256 0c-10.5 2.2-19.5 9.3-23.9 18.8-2.2 4.7-2.6 7.2-2.6 13.7 0 9.6 2.1 15.1 8.5 22 6.6 7.2 12.6 9.8 23.5 10.3 8.3.4 9.7.2 15.3-2.3 7.1-3.2 14.2-10.3 17.4-17.3 2.7-6.1 2.9-18.7.3-24.7-5.3-12.4-15.2-19.5-28.7-20.8-3-.3-7.4-.2-9.8.3zm257.4-.4c-13 3.3-19.9 8.3-24.7 18.1-2.9 6-3.3 7.7-3.3 14.8 0 9.7 3 17.1 9.4 23.3 7.2 7 12 8.7 24.1 8.7 9.5 0 11-.3 15.6-2.7 6.7-3.5 13.8-11.5 16-18.1 2.3-6.7 2.3-15.8-.1-22.7-2.5-7.5-11.9-17-19-19.3-5.4-1.8-14.8-2.9-18-2.1zm252.9.8c-10.3 2.6-17.8 8.8-22.6 18.6-1.8 3.6-2.2 6.3-2.3 13.5 0 8.5.2 9.4 3.6 15.5 4.1 7.4 10.7 13.1 18.3 15.6 6.9 2.3 20.6 1.6 26.4-1.5 6.7-3.5 12.3-9.1 15.4-15.6 2.3-4.9 2.8-7.3 2.8-13.6 0-10-2.1-15.7-8.1-22.3-8.3-9.1-21.8-13.2-33.5-10.2z" fill="#fff"/></svg>