<svg xmlns="http://www.w3.org/2000/svg" width="400" height="278.261"><path d="M81.142.193c-1.224.061-2.345.231-2.491.377-.146.146-.922.265-1.724.265-.803 0-1.537.125-1.631.278-.095.154-.659.279-1.253.279-.594 0-1.158.125-1.252.278-.095.153-.635.282-1.2.287-.565.005-1.267.19-1.559.412a1.517 1.517 0 01-1.183.239c-.462-.116-.651-.044-.651.246 0 .286-.209.369-.696.276-.384-.073-1.002.068-1.382.317-.377.248-1.004.45-1.392.45-.388 0-.706.125-.706.278 0 .153-.376.279-.835.279-.459 0-.835.125-.835.278 0 .153-.376.278-.835.278-.459 0-.835.126-.835.279 0 .153-.243.278-.54.278-.297 0-.618.125-.713.279-.094.153-.47.278-.835.278-.364 0-.74.125-.835.278-.094.153-.415.279-.712.279s-.54.125-.54.278c0 .153-.244.278-.541.278-.297 0-.617.126-.712.279-.095.153-.478.278-.851.278-.374 0-.68.125-.68.278 0 .153-.25.279-.557.279-.306 0-.556.125-.556.278 0 .153-.255.278-.566.278-.311 0-.637.188-.725.416-.088.229-.261.354-.384.278-.263-.163-1.94.74-1.942 1.046-.001.115-.225.209-.497.209-.273 0-.676.25-.897.557-.221.306-.624.556-.896.556-.273 0-.496.126-.496.279 0 .153-.219.281-.487.284-.268.004-.8.251-1.183.551-.383.299-.852.547-1.044.55-.191.004-.348.132-.348.285 0 .153-.164.278-.365.278-.2 0-.634.251-.962.557-.329.306-.737.557-.908.557-.395 0-1.105.703-1.105 1.093 0 .164-.094.284-.209.265-.537-.084-.885.094-1.696.869-.48.459-.973.835-1.096.835-.122 0-.776.501-1.453 1.113-.676.612-1.332 1.113-1.457 1.113-.352 0-2.867 2.602-2.779 2.874.043.132-.082.185-.278.118-.196-.068-.633.171-.97.53-.337.36-.689.654-.783.654-.25 0-4.795 4.672-5.656 5.816-.408.542-1.337 1.597-2.064 2.345-.727.748-1.322 1.484-1.322 1.637 0 .153-.383.636-.852 1.073-.468.438-.87 1.046-.893 1.352-.023.307-.092.507-.153.446-.163-.162-1.721 1.599-1.721 1.945 0 .162-.25.475-.557.696-.306.22-.556.596-.556.835 0 .238-.251.614-.557.835-.306.22-.557.624-.557.896 0 .273-.102.495-.226.495-.267 0-1.444 2.128-1.444 2.61 0 .181-.25.51-.557.731-.306.22-.556.624-.556.896 0 .273-.126.496-.279.496-.153 0-.278.25-.278.556 0 .306-.114.557-.254.557-.288 0-1.695 2.702-1.695 3.256 0 .199-.125.363-.278.363-.153 0-.278.25-.278.556 0 .307-.126.557-.279.557-.153 0-.278.251-.278.557 0 .306-.125.556-.278.556-.153 0-.279.244-.279.541 0 .297-.125.617-.278.712-.153.095-.278.478-.278.852 0 .373-.126.679-.279.679-.153 0-.278.313-.278.696 0 .383-.125.696-.278.696-.154 0-.279.376-.279.835 0 .459-.125.835-.278.835-.153 0-.279.376-.279.835 0 .459-.125.835-.278.835-.153 0-.278.376-.278.835 0 .459-.126.835-.279.835-.153 0-.278.361-.278.801 0 .441-.174.946-.387 1.123-.372.308-.637 1.234-.827 2.89-.049.427-.235.922-.412 1.099-.177.177-.322.798-.322 1.38 0 .582-.126 1.058-.279 1.058-.153 0-.278.626-.278 1.392 0 .765-.125 1.392-.279 1.392-.153 0-.278.663-.278 1.475 0 .811-.157 1.632-.348 1.823-.506.507-.506 29.083 0 29.59.198.198.348 1.042.348 1.962 0 .891.125 1.614.278 1.614.154 0 .279.627.279 1.392 0 .766.125 1.392.278 1.392.153 0 .279.476.279 1.058 0 .582.145 1.203.322 1.38.177.177.363.672.412 1.099.199 1.74.469 2.639.831 2.778.221.085.383.547.383 1.091 0 .52.125.945.278.945.153 0 .279.376.279.835 0 .459.125.835.278.835.153 0 .278.376.278.835 0 .459.126.835.279.835.153 0 .278.376.278.835 0 .459.125.835.279.835.153 0 .278.243.278.54 0 .298.125.618.278.713.153.094.279.478.279.851 0 .374.125.68.278.68.153 0 .278.313.278.696 0 .382.126.696.279.696.153 0 .278.25.278.556 0 .306.125.557.278.557.153 0 .279.25.279.557 0 .306.125.556.278.556.153 0 .278.251.278.557 0 .306.126.557.279.557.153 0 .278.168.278.375 0 .558.837 2.13 1.134 2.13.142 0 .258.251.258.557 0 .306.125.556.278.556.153 0 .279.223.279.496 0 .272.25.676.556.896.307.221.557.624.557.897 0 .272.125.495.278.495.154 0 .279.251.279.557 0 .306.125.556.278.556.153 0 .279.188.279.418 0 .23.125.418.278.418.153 0 .278.222.278.495 0 .272.251.676.557.896.306.221.557.568.557.77 0 .203.303.673.674 1.043.371.371.755.929.854 1.24.099.311.305.566.459.566.427 0 1.075.742 1.075 1.233 0 .24.125.437.278.437a.28.28 0 01.278.281c0 .155.376.674.835 1.155.46.48.835.983.835 1.117 0 .341 2.989 3.293 3.335 3.293.156 0 .253.101.215.225-.159.514 3.005 4.027 4.965 5.514.582.441 1.858 1.585 2.836 2.542.978.957 1.906 1.74 2.061 1.74.156 0 .634.375 1.063.835.429.459.886.835 1.016.835.13.001.675.376 1.211.835.536.458 1.133.834 1.327.834.194.001.775.408 1.29.905 1.126 1.087 1.464 1.341 2.463 1.857.421.217.765.499.765.626s.251.231.557.231c.306 0 .557.126.557.279 0 .153.188.278.417.278.23 0 .418.125.418.279 0 .153.25.278.557.278.306 0 .556.125.556.278 0 .153.251.279.557.279.306 0 .557.125.557.278 0 .153.25.278.557.278.306 0 .556.126.556.279 0 .153.178.278.395.278.216 0 .436.094.487.209.144.324 4.03 2.296 4.524 2.296.242 0 .44.126.44.279 0 .153.25.278.556.278.307 0 .557.125.557.278 0 .153.251.279.557.279.306 0 .557.125.557.278 0 .153.375.278.835.278.459 0 .835.126.835.279 0 .153.313.278.696.278.382 0 .696.125.696.278 0 .154.375.279.835.279.459 0 .835.125.835.278 0 .153.305.279.679.279.374 0 .757.125.852.278.094.153.47.278.835.278.364 0 .74.126.835.279.094.153.533.278.974.278.441 0 .88.125.974.278.095.153.541.279.991.279.45 0 .819.125.819.278 0 .153.49.278 1.09.278.599 0 1.137.142 1.195.314.057.173.725.429 1.484.57.759.14 2.007.385 2.772.543.766.157 2.143.35 3.062.428.919.077 1.789.256 1.935.396.145.14 1.241.255 2.435.255 1.262 0 2.171.116 2.171.278 0 .178 2.32.278 6.403.278 4.082 0 6.402-.1 6.402-.278 0-.153.376-.278.835-.278.459 0 .835-.126.835-.279 0-.153.235-.278.522-.278.593 0 3.097-1.331 3.097-1.647 0-.114.344-.385.765-.601.885-.455 2.575-2.172 2.575-2.616 0-.166.25-.483.557-.703.306-.221.556-.624.556-.897 0-.272.126-.495.279-.495.153 0 .278-.251.278-.557 0-.306.125-.556.278-.556.154 0 .279-.306.279-.68 0-.374.125-.757.278-.851.153-.095.278-.715.278-1.379 0-.815.136-1.258.418-1.366.323-.124.418-.664.418-2.376 0-1.599-.117-2.332-.418-2.634-.249-.249-.418-.93-.418-1.69 0-.7-.125-1.272-.278-1.272-.153 0-.278-.251-.278-.557 0-.306-.125-.557-.279-.557-.153 0-.278-.243-.278-.54 0-.297-.125-.618-.278-.712-.153-.095-.279-.388-.279-.651s-.25-.659-.556-.88c-.307-.221-.557-.537-.557-.703 0-.413-1.81-2.359-2.195-2.359-.171 0-.31-.125-.31-.278 0-.154-.188-.279-.418-.279-.229 0-.417-.125-.417-.278 0-.153-.188-.279-.418-.279-.23 0-.417-.125-.417-.278 0-.153-.251-.278-.557-.278-.306 0-.557-.113-.557-.251 0-.311-1.571-.936-2.486-.99-.373-.021-.728-.19-.789-.373-.078-.233-1.029-.335-3.134-.335-1.714 0-3.097-.12-3.194-.278-.096-.155-1.389-.278-2.923-.278s-2.827-.124-2.923-.279c-.094-.153-.846-.278-1.67-.278s-1.575-.125-1.67-.279c-.095-.153-.728-.278-1.408-.278-.68 0-1.236-.125-1.236-.278 0-.153-.431-.279-.958-.279-.527 0-1.035-.125-1.13-.278-.095-.153-.541-.278-.991-.278-.45 0-.818-.126-.818-.279 0-.153-.439-.278-.975-.278s-.974-.125-.974-.278c0-.154-.243-.279-.54-.279-.297 0-.618-.125-.713-.278-.094-.153-.477-.278-.851-.278s-.68-.126-.68-.279c0-.153-.25-.278-.556-.278-.306 0-.557-.1-.557-.223 0-.176-1.593-.914-2.227-1.031-.076-.014-.577-.302-1.113-.641a17.31 17.31 0 00-1.74-.96c-.421-.188-.765-.438-.765-.553 0-.116-.251-.211-.557-.211-.306 0-.557-.125-.557-.278 0-.153-.223-.279-.495-.279-.273 0-.676-.25-.897-.556-.22-.306-.625-.557-.899-.557s-.891-.376-1.371-.835c-.481-.459-.971-.835-1.09-.835-.118 0-.577-.345-1.02-.766a43.815 43.815 0 00-1.991-1.739c-3.542-2.906-5.343-4.613-6.433-6.096-1.043-1.418-2.134-2.533-2.478-2.533-.168 0-.306-.164-.306-.364 0-.199-.441-.845-.981-1.434-.54-.59-1.181-1.491-1.424-2.003-.243-.512-.553-.932-.688-.932-.136 0-.247-.222-.247-.495 0-.272-.251-.676-.557-.896-.306-.221-.556-.624-.556-.897 0-.272-.126-.495-.279-.495-.153 0-.278-.193-.278-.429a1.39 1.39 0 00-.282-.766c-.584-.695-1.667-2.459-1.667-2.714a.272.272 0 00-.278-.266c-.153 0-.278-.244-.278-.541 0-.297-.126-.617-.279-.712-.153-.095-.278-.478-.278-.852 0-.373-.125-.679-.278-.679-.154 0-.279-.251-.279-.557 0-.306-.125-.556-.278-.556-.153 0-.279-.244-.279-.541 0-.297-.125-.617-.278-.712-.153-.095-.278-.541-.278-.991 0-.45-.125-.818-.279-.818-.153 0-.278-.376-.278-.835 0-.46-.125-.836-.278-.836-.153 0-.279-.375-.279-.835 0-.459-.125-.835-.278-.835-.153 0-.278-.501-.278-1.113 0-.613-.126-1.114-.279-1.114-.153 0-.278-.563-.278-1.252 0-.689-.125-1.253-.278-1.253-.155 0-.279-.742-.279-1.67 0-.919-.114-1.67-.254-1.67-.759 0-.76-16.317-.001-17.105.141-.146.255-.921.255-1.723 0-.803.125-1.537.279-1.631.153-.095.278-.659.278-1.253 0-.594.125-1.158.278-1.253.153-.094.279-.603.279-1.129 0-.527.125-.958.278-.958.153 0 .278-.369.278-.819 0-.45.126-.896.279-.991.153-.094.278-.54.278-.99 0-.451.125-.819.278-.819.154 0 .279-.376.279-.835 0-.459.125-.835.278-.835.153 0 .278-.306.278-.68 0-.373.126-.756.279-.851.153-.095.278-.415.278-.712 0-.298.125-.541.279-.541.153 0 .278-.25.278-.556 0-.307.125-.557.278-.557.153 0 .279-.243.279-.54 0-.298.125-.618.278-.713.406-.25.342-.76-.07-.553-.191.097-.003-.12.418-.481s.765-.809.765-.994c0-.186.126-.338.279-.338.153 0 .278-.25.278-.556 0-.307.11-.557.245-.557.134 0 .4-.376.59-.835.19-.46.456-.835.591-.835.134 0 .244-.193.244-.429 0-.237.251-.699.557-1.027.306-.329.557-.774.557-.99 0-.216.376-.744.835-1.173.459-.429.835-.922.835-1.095 0-.173.407-.735.905-1.248 1.359-1.401 2.714-2.947 2.714-3.098 0-.18 4.685-4.858 4.865-4.858.197 0 1.485-1.083 2.566-2.157.5-.498 1.049-.905 1.22-.905.171 0 .662-.376 1.091-.835.429-.459.98-.835 1.225-.835.245 0 .445-.126.445-.279 0-.153.188-.278.418-.278.229 0 .417-.125.417-.278 0-.153.193-.279.429-.279s.699-.25 1.027-.556c.329-.307.762-.557.963-.557.201 0 .365-.125.365-.278 0-.154.25-.279.557-.279.306 0 .556-.096.556-.213 0-.117.501-.429 1.114-.695.612-.265 1.113-.608 1.113-.761 0-.154.243-.279.54-.279.298 0 .618-.126.713-.279.094-.153.415-.278.712-.278s.54-.125.54-.278c0-.154.251-.279.557-.279.306 0 .557-.125.557-.278 0-.153.376-.279.835-.279.459 0 .835-.125.835-.278 0-.153.25-.278.557-.278.306 0 .556-.125.556-.279 0-.153.439-.278.975-.278.535 0 .974-.125.974-.278 0-.153.368-.279.819-.279.45 0 .896-.125.99-.278.095-.153.603-.278 1.13-.278.527 0 .958-.126.958-.279 0-.153.476-.278 1.058-.278.581 0 1.176-.114 1.322-.253.145-.139.953-.329 1.795-.422.842-.093 2.533-.306 3.758-.472 3.962-.537 17.119-.282 17.119.332 0 .142.619.258 1.375.258.757 0 1.453.125 1.548.279.094.153.658.278 1.252.278.595 0 1.158.125 1.253.278.095.153.603.279 1.13.279.527 0 .958.125.958.278 0 .153.376.278.835.278.459 0 .835.126.835.279 0 .153.376.278.835.278.459 0 .835.125.835.278 0 .154.438.279.974.279s.975.125.975.278c0 .153.25.278.556.278.306 0 .557.126.557.279 0 .153.25.278.557.278.306 0 .556.125.556.279 0 .153.376.278.835.278.46 0 .836.125.836.278 0 .153.237.279.526.279.29 0 .599.188.688.417.088.23.414.418.725.418s.566.11.566.244c0 .135.376.401.835.591.459.19.835.456.835.59 0 .135.25.245.557.245.306 0 .556.125.556.278 0 .153.165.279.365.279.201 0 .634.25.963.556.329.306.763.557.965.557.203 0 .549.251.769.557.221.306.562.556.758.556.195 0 .356.126.356.279 0 .153.192.278.426.278.235 0 .856.407 1.38.905.524.497 1.66 1.531 2.524 2.296 2.857 2.531 8.195 8.018 8.196 8.425.001.353 1.302 1.735 1.633 1.735.173 0 .315.223.315.496 0 .272.251.675.557.896.306.221.557.624.557.897 0 .272.125.495.278.495.153 0 .278.188.278.417 0 .23.126.418.279.418.153 0 .278.25.278.557 0 .306.125.556.279.556.153 0 .278.165.278.365 0 .201.25.634.557.963.306.329.556.791.556 1.027 0 .236.126.429.279.429.153 0 .278.251.278.557 0 .306.125.556.278.556.153 0 .279.169.279.375 0 .55.835 2.131 1.125 2.131.137 0 .177.186.09.415-.091.237.032.489.287.586.267.103.446.495.446.977 0 .443.125.805.279.805.153 0 .278.251.278.557 0 .306.125.557.278.557.153 0 .279.438.279.974s.125.974.278.974c.153 0 .278.369.278.819 0 .45.126.896.279.99.153.095.278.604.278 1.13 0 .527.125.958.278.958.154 0 .279.501.279 1.114 0 .612.125 1.113.278 1.113.153 0 .279.689.279 1.531s.125 1.531.278 1.531c.159 0 .278.835.278 1.948 0 1.114.12 1.949.279 1.949.18 0 .278 3.288.278 9.309 0 5.905-.102 9.371-.278 9.48-.167.103-.279 1.905-.279 4.47 0 2.68-.105 4.298-.278 4.298-.168 0-.278 1.155-.278 2.907 0 1.637-.122 2.981-.279 3.078-.153.095-.278 1.229-.278 2.522 0 1.381-.115 2.349-.279 2.349-.16 0-.278.882-.278 2.088s-.117 2.088-.278 2.088c-.157 0-.279.788-.279 1.809s-.121 1.809-.278 1.809c-.155 0-.278.743-.278 1.67 0 .928-.124 1.671-.279 1.671-.154 0-.278.742-.278 1.67 0 .928-.124 1.67-.278 1.67-.154 0-.279.689-.279 1.531 0 1.223-.09 1.531-.449 1.531-.373 0-.418.207-.266 1.218.143.959.091 1.254-.247 1.383-.287.11-.43.531-.43 1.271 0 .608-.125 1.183-.278 1.277-.153.095-.278.659-.278 1.253 0 .594-.126 1.158-.279 1.253-.153.094-.278.595-.278 1.113s-.125 1.019-.278 1.114c-.153.094-.279.595-.279 1.113s-.125 1.019-.278 1.113c-.153.095-.278.666-.278 1.269 0 .604-.126 1.097-.279 1.097-.153 0-.278.431-.278.958 0 .527-.125 1.036-.278 1.13-.154.095-.279.541-.279.991 0 .45-.139.818-.31.818-.188 0-.26.339-.183.861.082.559-.005.911-.247 1.004-.224.086-.373.578-.373 1.227 0 .596-.126 1.084-.279 1.084-.153 0-.278.376-.278.835 0 .459-.125.835-.278.835-.153 0-.279.362-.279.805 0 .486-.179.874-.451.979-.335.128-.409.388-.286 1.004.125.622.063.831-.244.831-.271 0-.411.284-.411.835 0 .459-.125.835-.278.835-.153 0-.278.252-.278.56 0 .309-.125.81-.279 1.114l-.556 1.106c-.153.304-.279.867-.279 1.252s-.102.7-.228.7c-.125 0-.398.626-.607 1.392-.208.765-.481 1.391-.607 1.391-.125 0-.228.376-.228.835 0 .46-.125.836-.278.836-.153 0-.279.243-.279.54 0 .297-.125.618-.278.712-.153.095-.278.541-.278.991 0 .45-.125.819-.279.819-.153 0-.278.25-.278.556 0 .306-.125.557-.278.557-.153 0-.279.197-.279.437 0 .241-.188.626-.417.855-.23.23-.418.659-.418.955 0 .295-.133.537-.297.537-.164 0-.223.234-.131.523.105.331.009.584-.259.687-.235.09-.426.418-.426.729s-.125.566-.279.566c-.153 0-.278.25-.278.556 0 .307-.125.557-.278.557-.153 0-.279.247-.279.548 0 .302-.25.995-.556 1.54-.307.545-.557 1.175-.557 1.4 0 .225-.125.409-.278.409-.153 0-.279.251-.279.557 0 .306-.125.557-.278.557-.153 0-.278.313-.278.695 0 .383-.126.696-.279.696-.153 0-.278.251-.278.557 0 .306-.125.557-.279.557-.153 0-.278.25-.278.557 0 .306-.125.556-.278.556-.153 0-.279.182-.279.403 0 .222-.317.746-.706 1.165-.388.419-.646.916-.574 1.105.073.189-.048.412-.268.497a.67.67 0 00-.4.579c0 .235-.125.427-.278.427-.154 0-.279.25-.279.556 0 .307-.125.557-.278.557-.153 0-.279.251-.279.557 0 .306-.125.556-.278.556-.153 0-.278.194-.278.43s-.251.698-.557 1.026c-.306.329-.557.762-.557.963 0 .201-.125.365-.278.365-.153 0-.278.251-.278.557 0 .306-.126.556-.279.556-.153 0-.278.286-.278.635 0 .349-.251.815-.557 1.036-.306.22-.557.566-.557.769 0 .202-.127.519-.283.704-1.308 1.549-1.664 2.053-1.665 2.354 0 .191-.102.348-.226.348-.125 0-.399.438-.609.974-.21.536-.484.975-.609.975-.124 0-.226.222-.226.495 0 .272-.251.676-.557.896-.306.221-.557.597-.557.835 0 .239-.25.615-.556.835-.307.221-.557.579-.557.795 0 .216-.258.616-.572.889-.315.273-.592.752-.615 1.065-.024.312-.093.518-.154.457-.163-.163-1.721 1.598-1.721 1.945 0 .161-.251.474-.557.695-.306.221-.556.574-.556.785 0 .211-.376.734-.835 1.163-.46.429-.836.953-.836 1.164 0 .211-.25.564-.556.785-.306.221-.557.561-.557.757 0 .196-.125.356-.278.356-.153 0-.279.193-.279.428 0 .236-.532.974-1.183 1.64-2.177 2.231-3.549 3.87-3.549 4.243 0 .204-.125.37-.278.37a.283.283 0 00-.279.283c0 .156-.817 1.102-1.817 2.102-1 .999-1.744 1.936-1.654 2.082.09.146 0 .27-.2.275-.201.006-.866.579-1.478 1.275-1.731 1.967-4.825 5.117-5.025 5.117-.344 0-2.63 2.596-2.63 2.987 0 .216-.194.587-.431.825-.237.237-.504.791-.592 1.232-.088.441-.27.802-.404.802s-.243.376-.243.835c0 .459-.125.835-.278.835-.175 0-.279 1.716-.279 4.593 0 2.876.104 4.593.279 4.593.153 0 .278.376.278.835 0 .459.125.835.278.835.153 0 .279.313.279.696 0 .383.125.696.278.696.153 0 .278.169.278.376s.376.769.835 1.25c.46.481.835.987.835 1.126 0 .138.448.609.996 1.046a45.499 45.499 0 011.616 1.351c.765.687 1.563 1.155 3.625 2.125 1.114.525 12.17.554 12.344.033.064-.192.395-.348.736-.348.341 0 .889-.251 1.218-.557.328-.306.734-.557.9-.557.166 0 .586-.282.933-.626.346-.345 1.113-1.002 1.704-1.461 1.276-.991 4.672-4.374 5.852-5.829.459-.566 1.868-2.097 3.131-3.402 1.263-1.305 2.297-2.521 2.297-2.703 0-.182.25-.511.557-.732.306-.22.556-.561.556-.757 0-.196.135-.356.299-.356.368 0 .776-.413 1.648-1.67a13.438 13.438 0 011.452-1.713c.427-.405.777-.875.777-1.043 0-.169.125-.306.278-.306a.277.277 0 00.278-.275c0-.259.529-.988 1.323-1.824.191-.202.348-.51.348-.685 0-.379.69-1.113 1.046-1.113.138 0 .429-.343.646-.761.217-.418.74-1.126 1.161-1.572.421-.447.765-.924.765-1.061 0-.136.231-.496.512-.798.282-.302.688-.892.903-1.311.215-.418.611-.963.88-1.211.269-.247.489-.627.489-.843 0-.216.25-.573.556-.794.307-.221.557-.594.557-.83 0-.235.243-.58.54-.765.297-.185.75-.779 1.006-1.32.256-.54.577-.982.713-.982.135 0 .246-.223.246-.495 0-.273.251-.676.557-.897.306-.221.557-.596.557-.835 0-.238.25-.614.557-.835.306-.221.556-.624.556-.896 0-.273.126-.496.279-.496.153 0 .281-.156.284-.348.004-.191.251-.661.551-1.044.299-.382.547-.858.55-1.056.004-.198.288-.662.633-1.03 1.098-1.175 1.322-1.499 1.322-1.915 0-.223.104-.448.232-.499.304-.122 1.995-3.229 1.995-3.667 0-.186.25-.519.557-.74.306-.221.556-.624.556-.897 0-.272.125-.495.279-.495.153 0 .278-.25.278-.556 0-.307.125-.557.278-.557.153 0 .279-.251.279-.557 0-.306.125-.557.278-.557.153 0 .278-.25.278-.556 0-.307.126-.557.279-.557.153 0 .278-.313.278-.696 0-.407.16-.696.385-.696.212 0 .455-.219.54-.487.086-.268.601-1.28 1.146-2.249.545-.969.991-1.94.991-2.157 0-.218.125-.396.278-.396.153 0 .279-.175.279-.389 0-.214.376-1.104.835-1.977.459-.873.835-1.825.835-2.116 0-.29.125-.528.278-.528.153 0 .279-.251.279-.557 0-.306.125-.557.278-.557.153 0 .278-.25.278-.556 0-.306.126-.557.279-.557.153 0 .278-.3.278-.666 0-.366.171-.732.38-.812.209-.08.55-.72.757-1.422.207-.701.474-1.275.594-1.275s.218-.251.218-.557c0-.306.125-.557.278-.557.153 0 .278-.243.278-.54 0-.297.126-.618.279-.712.153-.095.278-.541.278-.991 0-.45.125-.819.278-.819.153 0 .279-.25.279-.556 0-.307.125-.557.278-.557.153 0 .278-.306.278-.68 0-.373.126-.756.279-.851.153-.095.278-.415.278-.712 0-.298.125-.541.278-.541.154 0 .279-.375.279-.835 0-.459.125-.835.278-.835.153 0 .279-.313.279-.696 0-.382.125-.696.278-.696.153 0 .278-.375.278-.835 0-.459.126-.835.279-.835.153 0 .278-.306.278-.679 0-.374.125-.757.278-.852.153-.094.279-.361.279-.593 0-.231.188-.609.417-.838.23-.23.418-.722.418-1.094 0-.372.125-.676.278-.676.153 0 .278-.376.278-.835 0-.459.126-.835.279-.835.153 0 .278-.376.278-.835 0-.459.125-.835.279-.835.153 0 .278-.376.278-.835 0-.46.125-.835.278-.835.153 0 .279-.439.279-.975 0-.535.125-.974.278-.974.153 0 .278-.376.278-.835 0-.459.126-.835.279-.835.153 0 .278-.376.278-.835 0-.459.125-.835.278-.835.154 0 .279-.501.279-1.114 0-.612.125-1.113.278-1.113.153 0 .278-.438.278-.974s.126-.974.279-.974c.153 0 .278-.431.278-.958 0-.527.125-1.036.279-1.13.153-.095.278-.541.278-.991 0-.45.125-.818.278-.818.153 0 .279-.486.279-1.08 0-.62.177-1.227.417-1.426.23-.19.418-.769.418-1.286s.125-.941.278-.941c.153 0 .278-.501.278-1.113s.126-1.113.279-1.113c.153 0 .278-.564.278-1.253s.125-1.253.278-1.253c.154 0 .279-.493.279-1.097 0-.603.125-1.174.278-1.269.153-.094.279-.728.279-1.408 0-.68.125-1.236.278-1.236.153 0 .278-.689.278-1.531s.126-1.531.279-1.531c.153 0 .278-.626.278-1.392 0-.765.125-1.392.278-1.392.153 0 .279-.689.279-1.531s.125-1.531.278-1.531c.155 0 .278-.742.278-1.67 0-.928.124-1.67.279-1.67.157 0 .278-.788.278-1.809s.121-1.809.279-1.809c.159 0 .278-.836.278-1.949s.119-1.948.278-1.948c.164 0 .279-.967.279-2.343 0-1.627.106-2.378.348-2.459.371-.123.682-3.081.934-8.908.078-1.798.26-3.27.404-3.27.154 0 .262-2.012.262-4.872 0-3.061.103-4.871.278-4.871.181 0 .279-3.34.279-9.464 0-6.124-.098-9.464-.279-9.464-.166 0-.278-1.067-.278-2.645 0-1.577-.112-2.644-.278-2.644-.159 0-.279-.83-.279-1.932 0-1.063-.125-2.009-.278-2.104-.153-.095-.278-.713-.278-1.374 0-.729-.165-1.339-.418-1.549-.267-.221-.417-.837-.417-1.704 0-.747-.126-1.358-.279-1.358-.153 0-.278-.501-.278-1.113 0-.613-.125-1.114-.278-1.114-.154 0-.279-.375-.279-.835 0-.459-.125-.835-.278-.835-.153 0-.279-.493-.279-1.097 0-.603-.125-1.174-.278-1.269-.153-.094-.278-.54-.278-.991 0-.45-.126-.818-.279-.818-.153 0-.278-.306-.278-.68 0-.373-.125-.757-.278-.851-.153-.095-.279-.415-.279-.712 0-.298-.125-.541-.278-.541-.153 0-.278-.376-.278-.835 0-.459-.126-.835-.279-.835-.153 0-.278-.313-.278-.696 0-.383-.125-.696-.279-.696-.153 0-.278-.184-.278-.409 0-.632-1.374-3.488-1.678-3.488-.149 0-.27-.243-.27-.54 0-.297-.126-.618-.279-.712-.153-.095-.278-.415-.278-.713 0-.297-.125-.54-.278-.54-.154 0-.279-.25-.279-.557 0-.306-.125-.556-.278-.556-.153 0-.279-.251-.279-.557 0-.306-.125-.557-.278-.557-.153 0-.278-.223-.278-.495s-.251-.676-.557-.897c-.306-.22-.557-.624-.557-.896s-.125-.495-.278-.495c-.153 0-.278-.227-.278-.505 0-.277-.251-.773-.557-1.101-.306-.329-.557-.763-.557-.966 0-.202-.25-.548-.557-.769-.306-.22-.558-.53-.561-.687-.003-.158-.316-.582-.696-.942-.38-.361-.691-.803-.691-.983 0-.18-.251-.507-.557-.728-.306-.221-.556-.624-.556-.896 0-.273-.126-.496-.279-.496-.153 0-.278-.16-.278-.356 0-.196-.251-.536-.557-.757-.306-.221-.557-.542-.557-.713 0-.172-.532-.886-1.183-1.588-1.614-1.742-2.992-3.333-2.992-3.454 0-.385-3.693-3.696-3.947-3.539-.191.118-.237.069-.118-.123.19-.309-4.345-5.058-4.831-5.058-.127 0-.828-.563-1.557-1.252-.73-.689-1.467-1.253-1.638-1.253-.172 0-.493-.25-.713-.557-.221-.306-.562-.556-.758-.556-.196 0-.356-.126-.356-.279 0-.153-.25-.278-.557-.278-.306 0-.556-.142-.556-.315 0-.328-1.055-1.355-1.391-1.355-.106 0-.557-.313-1.002-.696-.444-.382-.965-.696-1.156-.696-.192 0-.348-.125-.348-.278 0-.153-.251-.279-.557-.279-.306 0-.557-.125-.557-.278 0-.153-.188-.278-.417-.278-.23 0-.418-.126-.418-.279 0-.153-.193-.278-.429-.278s-.698-.251-1.027-.557c-.328-.306-.762-.557-.962-.557-.201 0-.365-.125-.365-.278 0-.153-.251-.278-.557-.278-.306 0-.557-.126-.557-.279 0-.153-.25-.278-.557-.278-.306 0-.556-.116-.556-.258 0-.346-1.673-1.165-1.985-.973-.135.084-.321-.043-.413-.282-.092-.24-.404-.436-.694-.436-.29 0-.527-.125-.527-.278 0-.153-.25-.278-.557-.278-.306 0-.556-.126-.556-.279 0-.153-.251-.278-.557-.278-.306 0-.557-.125-.557-.278 0-.153-.243-.279-.54-.279-.297 0-.618-.125-.712-.278-.095-.153-.541-.278-.991-.278-.45 0-.819-.126-.819-.279 0-.153-.25-.278-.556-.278-.307 0-.557-.125-.557-.278 0-.154-.376-.279-.835-.279-.459 0-.835-.125-.835-.278 0-.153-.376-.279-.835-.279-.46 0-.835-.125-.835-.278 0-.153-.376-.278-.835-.278-.46 0-.836-.126-.836-.279 0-.153-.425-.278-.944-.278-.545 0-1.007-.162-1.091-.383-.139-.362-1.039-.632-2.778-.831-.427-.049-.922-.235-1.099-.412-.178-.177-.799-.322-1.381-.322-.581 0-1.057-.126-1.057-.279 0-.153-.627-.278-1.392-.278-.766 0-1.392-.125-1.392-.279 0-.156-.781-.278-1.786-.278-1.17 0-1.826-.119-1.901-.344-.114-.342-21.773-.578-27.349-.298M293.459.19c-1.11.062-2.018.233-2.018.379s-.815.266-1.81.266c-1.02 0-1.809.121-1.809.278 0 .154-.626.279-1.392.279-.765 0-1.392.125-1.392.278 0 .153-.45.279-1.001.279-.555 0-1.349.248-1.785.558-.517.368-.821.45-.891.239-.081-.241-.255-.242-.702-.002-.327.175-.857.318-1.178.318-.321 0-.656.188-.744.417-.099.258-.522.418-1.105.418-.519 0-.944.125-.944.278 0 .153-.376.279-.836.279-.459 0-.835.125-.835.278 0 .153-.375.278-.835.278-.459 0-.835.126-.835.279 0 .153-.376.278-.835.278-.459 0-.835.125-.835.279 0 .153-.25.278-.557.278-.306 0-.556.125-.556.278 0 .153-.369.279-.819.279-.45 0-.896.125-.991.278-.094.153-.415.278-.712.278s-.54.126-.54.279c0 .153-.251.278-.557.278-.306 0-.557.125-.557.278 0 .153-.25.279-.556.279-.307 0-.557.125-.557.278 0 .153-.24.278-.534.278-.293 0-.585.156-.649.347-.063.191-.356.348-.649.348-.294.001-.507.145-.474.321.035.188-.163.261-.484.177-.341-.089-.608.025-.716.307-.095.247-.409.449-.699.449s-.527.125-.527.278c0 .153-.251.279-.557.279-.306 0-.557.125-.557.278 0 .153-.164.278-.365.278-.2 0-.634.251-.962.557-.329.306-.791.557-1.027.557-.236 0-.429.102-.429.226 0 .125-.439.399-.974.609-.536.21-.975.484-.975.609 0 .124-.156.226-.348.226-.191 0-.712.314-1.156.696-.445.383-.896.696-1.002.696-.336 0-1.391 1.027-1.391 1.355 0 .173-.223.315-.495.315s-.676.25-.897.557c-.22.306-.561.556-.757.556-.196 0-.356.126-.356.279 0 .153-.168.278-.373.278s-.97.564-1.7 1.253c-.729.689-1.438 1.252-1.575 1.252-.318 0-2.476 2.213-2.476 2.539 0 .135-.127.245-.281.245-.288 0-6.121 5.712-6.121 5.994 0 .085-.316.471-.701.856-.386.386-.627.822-.536.969.091.147.05.233-.091.191-.318-.096-2.847 2.541-2.847 2.968 0 .171-.251.492-.557.713-.306.221-.557.561-.557.757 0 .196-.125.356-.278.356-.153 0-.279.223-.279.496 0 .272-.25.675-.556.896-.306.221-.557.544-.557.719 0 .175-.324.643-.721 1.039-.396.396-.639.852-.54 1.012.099.161.039.292-.134.292-.404 0-1.11.703-1.11 1.105 0 .171-.251.579-.557.908-.306.328-.557.824-.557 1.101 0 .278-.125.505-.278.505-.153 0-.278.223-.278.495s-.251.676-.557.896c-.306.221-.557.625-.557.897s-.125.495-.278.495c-.153 0-.278.251-.278.557 0 .306-.126.557-.279.557-.153 0-.278.25-.278.556 0 .307-.125.557-.279.557-.153 0-.278.243-.278.54 0 .298-.125.618-.278.713-.153.094-.279.415-.279.712s-.121.54-.27.54c-.304 0-1.678 2.856-1.678 3.488 0 .225-.125.409-.278.409-.154 0-.279.313-.279.696 0 .383-.125.696-.278.696-.153 0-.279.376-.279.835 0 .459-.125.835-.278.835-.153 0-.278.243-.278.541 0 .297-.126.617-.279.712-.153.094-.278.47-.278.835s-.125.74-.278.835c-.153.095-.279.47-.279.835s-.125.741-.278.835c-.153.095-.278.666-.278 1.269 0 .604-.126 1.097-.279 1.097-.153 0-.278.376-.278.835 0 .46-.125.835-.279.835-.153 0-.278.501-.278 1.114 0 .612-.118 1.113-.262 1.113-.145 0-.258.635-.252 1.411.008 1.031-.12 1.507-.476 1.767-.385.282-.449.591-.306 1.483.138.862.082 1.164-.236 1.286-.315.121-.416.637-.416 2.117 0 1.119-.12 1.957-.279 1.957-.166 0-.278 1.067-.278 2.644 0 1.578-.112 2.645-.278 2.645-.178 0-.279 2.459-.279 6.82 0 4.361.101 6.819.279 6.819.167 0 .278 1.155.278 2.907 0 1.637.121 2.981.278 3.078.153.095.279.983.279 1.974 0 1.327.107 1.843.408 1.958.311.12.369.449.242 1.378-.134.975-.076 1.256.287 1.395.335.128.454.533.454 1.536 0 .75.126 1.362.279 1.362.153 0 .278.494.278 1.097 0 .604.125 1.175.278 1.269.154.095.279.541.279.991 0 .45.125.819.278.819.153 0 .279.431.279.958 0 .526.125 1.035.278 1.129.153.095.278.541.278.991 0 .45.126.819.279.819.153 0 .278.306.278.679 0 .374.125.757.278.852.153.094.279.478.279.851 0 .374.125.68.278.68.153 0 .278.376.278.835 0 .459.126.835.279.835.153 0 .278.243.278.54 0 .297.125.618.279.713.153.094.278.415.278.712s.125.54.278.54c.153 0 .279.231.279.514 0 .667.8 2.27 1.133 2.27.142 0 .258.25.258.556 0 .307.126.557.279.557.153 0 .278.243.278.54 0 .298.125.618.278.713.154.094.279.415.279.712s.125.54.278.54c.153 0 .279.251.279.557 0 .306.125.557.278.557.153 0 .278.164.278.365 0 .201.251.634.557.962.306.329.557.791.557 1.027 0 .236.125.429.278.429.153 0 .278.251.278.557 0 .306.106.557.235.557s.524.563.879 1.252c.354.689.808 1.253 1.009 1.253.201 0 .301.166.223.37-.078.203.177.609.566.901.389.292.707.698.707.903 0 .441.675 1.166 1.085 1.166.159 0 .222.176.139.392-.147.384.25.992 1.49 2.275.344.357.626.783.626.949 0 .392 1.841 2.23 2.234 2.23.168 0 .227.125.132.278-.094.153-.035.279.132.279s.383.208.481.463c.273.712 6.225 7.052 6.62 7.052.086 0 .718.533 1.404 1.183 3.131 2.97 3.665 3.434 4.38 3.805.419.217.762.499.762.626 0 .128.16.232.356.232.196 0 .537.25.757.556.221.307.597.557.836.557.238 0 .614.251.835.557.22.306.624.557.896.557.273 0 .495.177.495.394 0 .217.376.56.835.764.46.203.836.444.836.536 0 .092.563.456 1.252.811.689.354 1.253.75 1.253.879s.25.234.557.234c.306 0 .556.125.556.279 0 .153.223.278.495.278.273 0 .676.25.897.557.221.306.624.556.897.556.272 0 .495.126.495.279 0 .153.25.278.557.278.306 0 .556.125.556.278 0 .154.243.279.541.279.297 0 .617.125.712.278.094.153.402.278.682.278.281 0 .583.188.671.418.088.23.352.418.587.418.234 0 .426.125.426.278 0 .153.164.278.365.278.201 0 .884.251 1.518.557.633.306 1.346.557 1.583.557.237 0 .431.125.431.278 0 .153.313.278.696.278.383 0 .696.126.696.279 0 .153.375.278.835.278.459 0 .835.125.835.278 0 .154.25.279.557.279.306 0 .556.125.556.278 0 .153.376.279.835.279.46 0 .835.125.835.278 0 .153.439.278.975.278.535 0 .974.126.974.279 0 .153.368.278.819.278.45 0 .896.125.99.278.095.153.603.279 1.13.279.527 0 .958.125.958.278 0 .153.447.278.994.278.547 0 1.182.188 1.412.418.229.23.839.418 1.355.418s1.016.125 1.11.278c.095.153.721.278 1.392.278.671 0 1.297.125 1.392.279.094.153.916.278 1.825.278.917 0 1.654.124 1.654.278 0 .164.969.279 2.35.279 1.292 0 2.427.125 2.521.278.233.377 12.572.377 12.805 0 .095-.153.54-.278.991-.278.45 0 .818-.126.818-.279 0-.153.184-.278.408-.278 1.308 0 7.108-4.879 7.108-5.98 0-.232.116-.422.258-.422.297 0 1.134-1.573 1.134-2.131 0-.206.125-.375.278-.375.153 0 .278-.375.278-.835 0-.459.126-.835.279-.835.173 0 .278-1.623.278-4.314s-.105-4.315-.278-4.315c-.153 0-.279-.376-.279-.835 0-.459-.125-.835-.278-.835-.153 0-.278-.25-.278-.557 0-.306-.126-.556-.279-.556-.153 0-.278-.255-.278-.566 0-.311-.188-.637-.418-.725-.229-.089-.417-.337-.417-.553 0-.529-4.056-4.559-4.588-4.559-.233 0-.423-.125-.423-.278 0-.153-.237-.278-.526-.278-.29 0-.599-.188-.688-.418-.088-.229-.414-.417-.725-.417s-.566-.139-.566-.309c0-.186-.263-.242-.664-.142-.42.106-.79.015-1.008-.248-.267-.321-1.029-.415-3.372-.415-1.833 0-3.028-.11-3.028-.278 0-.168-1.16-.278-2.923-.278-1.763 0-2.923-.111-2.923-.279 0-.154-.742-.278-1.67-.278-.928 0-1.67-.124-1.67-.279 0-.153-.564-.278-1.253-.278-.688 0-1.252-.125-1.252-.278 0-.153-.501-.279-1.114-.279-.612 0-1.113-.125-1.113-.278 0-.153-.376-.278-.835-.278-.459 0-.835-.126-.835-.279 0-.153-.376-.278-.835-.278-.46 0-.835-.125-.835-.278 0-.154-.369-.279-.819-.279-.45 0-.896-.125-.991-.278-.094-.153-.415-.278-.712-.278s-.54-.126-.54-.279c0-.153-.376-.278-.835-.278-.46 0-.835-.116-.835-.258 0-.345-1.672-1.166-1.983-.974-.134.083-.244.028-.244-.123 0-.31-1.557-1.15-2.131-1.15-.206 0-.374-.126-.374-.279 0-.153-.223-.278-.496-.278-.272 0-.676-.251-.896-.557-.221-.306-.624-.557-.897-.557-.272 0-.495-.125-.495-.278 0-.153-.164-.278-.365-.278-.201 0-.608-.219-.905-.487-.297-.268-.884-.665-1.305-.883-.421-.217-.765-.499-.765-.626s-.131-.231-.29-.231c-.272 0-.58-.212-1.496-1.031-.206-.184-.452-.257-.547-.162-.095.095-.173.009-.173-.19 0-.377-1.362-1.678-1.757-1.679-.125 0-.837-.626-1.583-1.392-.745-.765-1.458-1.394-1.582-1.398-.125-.003-.603-.452-1.062-.999a77.55 77.55 0 00-2.018-2.265c-.651-.699-1.183-1.381-1.183-1.514s-.407-.682-.905-1.221c-1.85-2.002-2.157-2.377-2.157-2.636a.273.273 0 00-.279-.266c-.153 0-.278-.164-.278-.365 0-.201-.251-.634-.557-.963-.306-.328-.556-.763-.556-.965 0-.202-.251-.548-.557-.769-.306-.221-.557-.624-.557-.897 0-.272-.125-.495-.278-.495-.153 0-.279-.25-.279-.557 0-.306-.094-.557-.208-.557-.115-.001-.522-.689-.905-1.53-.383-.841-.79-1.53-.905-1.53-.114-.001-.208-.185-.208-.409 0-.565-.888-2.376-1.165-2.376-.125 0-.227-.25-.227-.556 0-.307-.125-.557-.279-.557-.153 0-.278-.369-.278-.819 0-.45-.125-.896-.278-.991-.153-.094-.279-.54-.279-.99 0-.45-.125-.819-.278-.819-.153 0-.278-.376-.278-.835 0-.459-.126-.835-.279-.835-.153 0-.278-.376-.278-.835 0-.459-.125-.835-.278-.835-.154 0-.279-.556-.279-1.236 0-.68-.125-1.314-.278-1.409-.153-.094-.279-.794-.279-1.556 0-.85-.134-1.435-.347-1.517-.242-.092-.319-.654-.253-1.83.056-.988-.031-1.824-.208-2.001-.402-.402-.427-12.163-.027-12.163.159 0 .279-.835.279-1.949 0-1.113.119-1.948.278-1.948.153 0 .278-.619.278-1.375 0-.757.126-1.453.279-1.548.153-.094.278-.665.278-1.269 0-.603.125-1.097.279-1.097.153 0 .278-.431.278-.958 0-.526.125-1.035.278-1.13.153-.094.279-.54.279-.99 0-.45.125-.819.278-.819.153 0 .278-.438.278-.974s.126-.974.279-.974c.153 0 .278-.251.278-.557 0-.306.125-.557.278-.557.154 0 .279-.376.279-.835 0-.557.139-.835.417-.835.23 0 .418-.184.418-.409 0-.225.25-.855.557-1.4.306-.545.556-1.176.556-1.401 0-.225.126-.409.279-.409.153 0 .278-.25.278-.556 0-.306.125-.557.278-.557.153 0 .279-.193.279-.429s.25-.698.556-1.027c.307-.329.557-.762.557-.963 0-.2.125-.365.278-.365.154 0 .279-.25.279-.556 0-.307.125-.557.278-.557.153 0 .279-.188.279-.418 0-.229.125-.417.278-.417.153 0 .278-.223.278-.495 0-.273.251-.676.557-.897.306-.221.557-.624.557-.896 0-.273.142-.496.315-.496.331 0 1.632-1.382 1.633-1.735.001-.407 5.339-5.894 8.196-8.425.864-.765 2-1.799 2.524-2.296.524-.498 1.145-.905 1.38-.905.234 0 .426-.125.426-.278 0-.153.161-.279.356-.279.196 0 .537-.25.758-.556.22-.306.566-.557.769-.557.202 0 .636-.251.965-.557.329-.306.762-.556.963-.556.2 0 .365-.126.365-.279 0-.153.25-.278.556-.278.307 0 .557-.099.557-.22s.689-.569 1.531-.996c.842-.426 1.531-.891 1.531-1.032 0-.142.251-.257.557-.257.306 0 .556-.126.556-.279 0-.153.376-.278.836-.278.459 0 .835-.125.835-.278 0-.154.25-.279.556-.279.307 0 .557-.125.557-.278 0-.153.251-.279.557-.279.306 0 .556-.125.556-.278 0-.153.439-.278.975-.278s.974-.125.974-.279c0-.153.376-.278.835-.278.459 0 .835-.125.835-.278 0-.153.376-.279.835-.279.459 0 .835-.125.835-.278 0-.153.501-.278 1.114-.278.612 0 1.113-.126 1.113-.279 0-.153.494-.278 1.097-.278s1.175-.125 1.269-.278c.095-.154.791-.279 1.548-.279.756 0 1.375-.116 1.375-.258 0-.622 13.142-.866 17.258-.32 1.301.173 3.086.385 3.967.471.88.086 1.6.271 1.6.41 0 .14.501.254 1.114.254.612 0 1.113.125 1.113.278 0 .153.431.279.958.279.527 0 1.035.125 1.13.278.094.153.54.278.99.278.451 0 .819.126.819.279 0 .153.439.278.974.278.536 0 .975.125.975.278 0 .154.25.279.556.279.307 0 .557.125.557.278 0 .153.376.278.835.278.459 0 .835.126.835.279 0 .153.251.278.557.278.306 0 .557.125.557.279 0 .153.243.278.54.278.297 0 .618.125.712.278.095.153.415.279.713.279.297 0 .54.105.54.233 0 .129.499.473 1.11.766.611.292 1.112.626 1.114.74.001.115.253.209.559.209.307 0 .557.125.557.279 0 .153.164.278.365.278.201 0 .634.25.963.557.328.306.767.556.974.556.207 0 .646.251.974.557.329.306.741.557.915.557.175 0 .669.376 1.098.835.429.459.953.835 1.164.835.211 0 .567.26.793.578.225.319 1.035 1.038 1.801 1.6 1.53 1.121 5.643 5.188 6.959 6.88a26.39 26.39 0 001.739 1.983c.498.5.905 1.052.905 1.225 0 .173.376.666.835 1.095.459.429.835.98.835 1.225 0 .245.126.445.279.445.153 0 .278.188.278.418 0 .229.125.417.278.417.153 0 .279.193.279.429s.25.699.556 1.027c.307.329.557.762.557.963 0 .201.125.365.278.365.154 0 .279.25.279.557 0 .306.184.556.409.556.248 0 .346.164.249.415-.091.238.032.489.287.587.246.094.447.401.447.682s.125.588.278.682c.153.095.278.415.278.713 0 .297.126.54.279.54.153 0 .278.25.278.557 0 .306.125.556.278.556.154 0 .279.243.279.541 0 .297.125.617.278.712.153.095.279.478.279.851 0 .374.125.68.278.68.153 0 .278.376.278.835 0 .459.125.835.279.835.153 0 .278.368.278.819 0 .45.125.896.278.99.153.095.279.541.279.991 0 .45.125.819.278.819.153 0 .278.431.278.958 0 .526.126 1.035.279 1.129.153.095.278.659.278 1.253 0 .594.125 1.158.278 1.253.154.094.279.838.279 1.652 0 1.008.14 1.597.438 1.844.365.303.406.75.246 2.678-.158 1.893-.111 2.438.257 3 .659 1.006.652 6.67-.009 7.33-.41.41-.439 1.082-.274 6.241.156 4.84.117 5.946-.236 6.792-.289.692-.422 1.96-.422 4.022 0 1.708-.121 3.086-.279 3.184-.153.094-.278 1.284-.278 2.644s-.125 2.55-.278 2.645c-.153.094-.279 1.166-.279 2.382 0 1.288-.116 2.211-.278 2.211-.159 0-.278.835-.278 1.948s-.12 1.949-.279 1.949c-.157 0-.278.788-.278 1.809s-.121 1.809-.278 1.809c-.154 0-.279.619-.279 1.376 0 .756-.125 1.452-.278 1.547-.153.095-.278.854-.278 1.687 0 .833-.126 1.514-.279 1.514-.153 0-.278.556-.278 1.236 0 .68-.125 1.314-.279 1.408-.153.095-.278.729-.278 1.409s-.125 1.236-.278 1.236c-.153 0-.279.564-.279 1.252 0 .689-.125 1.253-.278 1.253-.153 0-.278.548-.278 1.219 0 .75-.163 1.353-.423 1.569-.301.25-.372.622-.248 1.287.141.747.086.936-.273.936-.325 0-.448.262-.448.957 0 .527-.125 1.036-.279 1.13-.153.095-.278.603-.278 1.13 0 .527-.125.958-.278.958-.153 0-.279.431-.279.958 0 .527-.125 1.035-.278 1.13-.153.094-.278.533-.278.974 0 .441-.126.879-.279.974-.153.095-.278.54-.278.991 0 .45-.125.818-.278.818-.153 0-.279.369-.279.819 0 .45-.125.896-.278.991-.153.094-.278.533-.278.974 0 .441-.126.88-.279.974-.153.095-.278.471-.278.835 0 .365-.125.741-.279.835-.153.095-.278.478-.278.852s-.125.679-.278.679c-.153 0-.279.376-.279.835 0 .46-.125.835-.278.835-.153 0-.278.323-.278.716 0 .394-.198.914-.439 1.155-.242.242-.381.663-.31.937.072.273-.017.553-.197.623-.181.069-.503.766-.716 1.549-.213.782-.49 1.423-.615 1.423-.126 0-.229.375-.229.835 0 .459-.125.835-.278.835-.153 0-.278.25-.278.557 0 .306-.125.556-.279.556-.153 0-.278.376-.278.835 0 .46-.125.835-.278.835-.153 0-.279.314-.279.696 0 .383-.125.696-.278.696-.153 0-.278.251-.278.557 0 .306-.126.557-.279.557-.153 0-.278.375-.278.835 0 .459-.125.835-.278.835-.154 0-.279.25-.279.557 0 .306-.125.556-.278.556-.153 0-.279.243-.279.541 0 .297-.125.617-.278.712-.153.094-.278.361-.278.593 0 .231-.198.618-.439.86-.242.242-.379.671-.305.954.084.321-.013.516-.257.516-.215 0-.391.25-.391.556 0 .307-.125.557-.278.557-.153 0-.279.251-.279.557 0 .306-.125.556-.278.556-.153 0-.278.251-.278.557 0 .306-.126.557-.279.557-.153 0-.278.243-.278.54 0 .297-.125.618-.279.712-.153.095-.278.416-.278.713s-.125.54-.278.54c-.153 0-.279.251-.279.557 0 .306-.125.557-.278.557-.153 0-.278.25-.278.556 0 .306-.126.557-.279.557-.153 0-.278.25-.278.557 0 .306-.125.556-.278.556-.153 0-.279.251-.279.557 0 .306-.125.557-.278.557-.153 0-.278.188-.278.417 0 .23-.126.418-.279.418-.153 0-.278.25-.278.557 0 .306-.105.556-.234.556-.128 0-.473.5-.765 1.111-.293.61-.626 1.111-.741 1.113-.115.002-.209.254-.209.56 0 .306-.094.558-.208.559-.115.001-.349.283-.519.626-1.18 2.374-2.184 4.104-2.381 4.104-.128 0-.232.25-.232.556 0 .307-.125.557-.278.557-.153 0-.279.164-.279.365 0 .201-.25.634-.556.963-.307.328-.557.721-.557.873 0 .152-.318.618-.706 1.037-.388.419-.643.927-.566 1.128.078.201-.022.366-.221.366s-.539.345-.757.766c-.217.421-.614 1.008-.882 1.305-.268.297-.487.704-.487.904 0 .201-.125.366-.278.366-.153 0-.278.187-.278.417 0 .23-.126.418-.279.418-.153 0-.278.187-.278.417 0 .23-.125.418-.279.418-.153 0-.278.188-.278.417 0 .23-.125.418-.278.418-.153 0-.279.223-.279.495s-.25.676-.556.897c-.307.22-.557.624-.557.896s-.142.495-.316.495c-.372 0-1.632 1.403-1.632 1.818 0 .157-.251.467-.557.688-.306.22-.557.561-.557.757 0 .196-.125.356-.278.356-.153 0-.279.169-.279.376s-.376.77-.835 1.25c-.459.481-.835 1.01-.835 1.177 0 .166-.501.784-1.113 1.372-.613.589-1.114 1.16-1.114 1.271 0 .11-.344.546-.765.969-1.335 1.342-2.297 2.494-2.297 2.75 0 .136-1.033 1.306-2.296 2.599a287.064 287.064 0 00-3.308 3.435c-.556.597-1.965 1.995-3.131 3.108-1.248 1.191-2.121 2.25-2.121 2.575 0 .303-.156.52-.348.482-.191-.038-.316.087-.278.278.038.192-.118.348-.348.348-.232 0-.417.248-.417.557 0 .306-.126.557-.279.557-.153 0-.278.25-.278.556 0 .307-.125.557-.278.557-.154 0-.279.251-.279.557 0 .306-.125.557-.278.557-.153 0-.279.563-.279 1.252 0 .689-.125 1.253-.278 1.253-.169 0-.278 1.206-.278 3.062 0 1.855.109 3.062.278 3.062.153 0 .278.493.278 1.097 0 .603.126 1.174.279 1.269.153.094.278.383.277.642-.001.721 1.206 2.837 1.618 2.837.2 0 .292.117.204.26-.291.47 4.496 5.029 5.28 5.029.228 0 .415.125.415.278 0 .153.225.279.501.279.275 0 .657.156.849.348.257.256 1.922.348 6.365.348 4.566 0 6.045-.084 6.133-.348.064-.192.356-.348.65-.348.293 0 .533-.126.533-.279 0-.153.2-.278.444-.278.726 0 2.049-1.06 4.752-3.808 1.403-1.427 2.656-2.599 2.784-2.604.127-.006.733-.578 1.345-1.271.613-.694 1.896-2.082 2.853-3.085.957-1.002 1.74-1.943 1.74-2.089 0-.359.724-1.061 1.094-1.061.164 0 .301-.094.304-.209.004-.115.442-.692.975-1.283.532-.591.967-1.183.967-1.315 0-.132.564-.804 1.253-1.493.689-.689 1.253-1.355 1.253-1.48 0-.126.563-.849 1.251-1.608.688-.759 1.252-1.487 1.253-1.617 0-.129.377-.587.836-1.016.459-.429.835-.899.835-1.045 0-.145.376-.657.835-1.138.459-.481.835-.969.836-1.085 0-.116.376-.65.834-1.186.459-.535.834-1.165.835-1.4 0-.234.251-.606.557-.826.306-.221.557-.517.557-.658 0-.141.375-.616.835-1.054.459-.439.835-.903.835-1.031 0-.128.313-.597.695-1.042.383-.444.696-.965.696-1.156 0-.192.126-.348.279-.348.153 0 .278-.188.278-.418 0-.229.126-.417.279-.417.153 0 .278-.223.278-.496 0-.272.251-.675.557-.896.306-.221.556-.567.556-.769 0-.202.251-.637.557-.965.306-.329.557-.762.557-.963 0-.201.125-.365.278-.365.153 0 .279-.182.279-.405 0-.223.313-.718.695-1.101.383-.382.696-.889.696-1.126 0-.236.11-.43.245-.43.134 0 .4-.376.59-.835.191-.459.456-.835.591-.835.134 0 .245-.251.245-.557 0-.306.125-.557.278-.557.153 0 .278-.187.278-.417 0-.23.125-.418.279-.418.153 0 .278-.188.278-.417 0-.23.125-.418.278-.418.153 0 .279-.25.279-.556 0-.307.125-.557.278-.557.153 0 .278-.286.278-.635 0-.349.251-.815.557-1.035.306-.221.557-.624.557-.897 0-.272.125-.495.278-.495.153 0 .279-.251.279-.557 0-.306.125-.556.278-.556.153 0 .278-.238.278-.527 0-.29.188-.599.418-.688.229-.088.417-.352.417-.586 0-.235.126-.426.279-.426.153 0 .281-.22.284-.487.004-.268.251-.801.551-1.183.299-.383.547-.853.55-1.044.004-.192.132-.348.285-.348.153 0 .278-.251.278-.557 0-.306.125-.557.279-.557.153 0 .278-.25.278-.556 0-.307.125-.557.278-.557.153 0 .279-.251.279-.557 0-.306.125-.557.278-.557.153 0 .278-.243.278-.54 0-.297.126-.618.279-.712.153-.095.278-.415.278-.713 0-.297.125-.54.278-.54.153 0 .279-.25.279-.557 0-.306.125-.556.278-.556.153 0 .278-.243.278-.541 0-.297.126-.617.279-.712.153-.094.278-.478.278-.851 0-.374.114-.68.254-.68.288 0 1.695-2.702 1.695-3.256 0-.199.125-.362.278-.362.153 0 .278-.244.278-.541 0-.297.126-.617.279-.712.153-.095.278-.478.278-.852 0-.373.125-.679.278-.679.154 0 .279-.251.279-.557 0-.306.125-.556.278-.556.153 0 .279-.314.279-.696 0-.383.125-.696.278-.696.153 0 .278-.376.278-.835 0-.46.126-.835.279-.835.153 0 .278-.251.278-.557 0-.306.125-.557.278-.557.153 0 .279-.376.279-.835 0-.459.125-.835.278-.835.153 0 .278-.25.278-.557 0-.306.126-.556.279-.556.153 0 .278-.363.278-.806 0-.443.162-.867.359-.943.197-.075.533-.778.746-1.56.213-.783.49-1.423.616-1.423.125 0 .228-.376.228-.836 0-.459.125-.835.278-.835.153 0 .278-.305.278-.679 0-.374.126-.757.279-.852.153-.094.278-.477.278-.851s.125-.68.278-.68c.153 0 .279-.375.279-.835 0-.459.125-.835.278-.835.153 0 .278-.375.278-.835 0-.459.126-.835.279-.835.153 0 .278-.368.278-.819 0-.45.125-.896.279-.99.153-.095.278-.541.278-.991 0-.45.125-.819.278-.819.153 0 .279-.368.279-.818 0-.45.125-.896.278-.991.153-.094.278-.603.278-1.13 0-.526.126-.958.279-.958.153 0 .278-.36.278-.801 0-.44.188-.956.418-1.147.229-.191.417-.7.417-1.131 0-.432.125-.862.278-.957.154-.094.279-.533.279-.974 0-.441.125-.88.278-.974.153-.095.279-.596.279-1.114 0-.517.125-1.018.278-1.113.153-.095.278-.596.278-1.113 0-.518.126-1.019.279-1.114.153-.095.278-.596.278-1.113 0-.518.125-1.019.278-1.114.153-.094.279-.665.279-1.269 0-.603.125-1.097.278-1.097.153 0 .278-.564.278-1.252 0-.689.126-1.253.279-1.253.153 0 .278-.501.278-1.113 0-.613.125-1.114.278-1.114.154 0 .279-.619.279-1.375 0-.757.125-1.453.278-1.548.153-.094.279-.791.279-1.547 0-.757.125-1.375.278-1.375.153 0 .278-.627.278-1.392 0-.766.126-1.392.279-1.392.156 0 .278-.779.278-1.78 0-1.325.107-1.82.418-1.939.298-.115.417-.582.417-1.645 0-.816.115-1.603.255-1.748.243-.252.403-1.501.747-5.832.085-1.071.27-2.067.412-2.213.141-.145.256-1.234.256-2.419s.125-2.232.279-2.327c.155-.095.278-1.387.278-2.916 0-1.947.101-2.777.348-2.859.274-.092.348-4.379.348-20.19 0-15.688-.076-20.151-.348-20.423-.191-.191-.348-1.012-.348-1.823 0-.812-.125-1.475-.278-1.475-.154 0-.279-.627-.279-1.392 0-.766-.125-1.392-.278-1.392-.153 0-.279-.494-.279-1.097s-.125-1.174-.278-1.269c-.153-.095-.278-.596-.278-1.113 0-.518-.125-1.019-.279-1.114-.153-.095-.278-.527-.278-.961 0-.444-.182-.859-.417-.949-.245-.094-.418-.511-.418-1.004 0-.464-.125-.844-.278-.844-.153 0-.279-.376-.279-.835 0-.459-.125-.835-.278-.835-.153 0-.278-.376-.278-.835 0-.459-.126-.835-.279-.835-.153 0-.278-.376-.278-.835 0-.459-.125-.835-.279-.835-.153 0-.278-.313-.278-.696 0-.383-.125-.696-.278-.696-.153 0-.279-.306-.279-.679 0-.374-.125-.757-.278-.852-.153-.095-.278-.415-.278-.712s-.126-.541-.279-.541c-.153 0-.278-.25-.278-.556 0-.306-.125-.557-.278-.557-.153 0-.279-.25-.279-.557 0-.306-.125-.556-.278-.556-.153 0-.278-.164-.278-.363 0-.554-1.407-3.256-1.695-3.256-.14 0-.254-.251-.254-.557 0-.306-.125-.556-.278-.556-.153 0-.279-.223-.279-.496 0-.272-.25-.676-.556-.896-.307-.221-.557-.55-.557-.731 0-.482-1.177-2.61-1.444-2.61-.124 0-.226-.222-.226-.495 0-.272-.251-.676-.557-.896-.306-.221-.557-.597-.557-.835 0-.239-.25-.615-.556-.835-.307-.221-.557-.531-.557-.688 0-.158-.439-.779-.975-1.381-.535-.602-.974-1.209-.974-1.35 0-.14-.375-.606-.835-1.035-.459-.429-.835-.905-.835-1.058 0-.153-.595-.889-1.322-1.637-.727-.748-1.656-1.803-2.064-2.345-.892-1.184-5.41-5.816-5.673-5.816-.102 0-.437-.32-.745-.711-.307-.391-.617-.652-.689-.58-.072.072-.804-.548-1.626-1.377-.823-.829-1.6-1.508-1.728-1.508-.128 0-.786-.501-1.462-1.113-.677-.612-1.331-1.113-1.453-1.113-.123 0-.616-.376-1.096-.835-.811-.775-1.159-.953-1.696-.869-.115.019-.209-.101-.209-.265 0-.39-.71-1.093-1.105-1.093-.171 0-.579-.251-.908-.557-.328-.306-.762-.557-.962-.557-.201 0-.365-.125-.365-.278 0-.153-.157-.281-.348-.285-.192-.003-.661-.251-1.044-.55-.383-.3-.915-.547-1.183-.551-.268-.003-.487-.131-.487-.284 0-.153-.223-.279-.496-.279-.272 0-.675-.25-.896-.556-.221-.307-.624-.557-.897-.557-.272 0-.496-.094-.497-.209-.002-.306-1.679-1.209-1.942-1.046-.123.076-.296-.049-.384-.278-.088-.228-.414-.416-.725-.416s-.566-.125-.566-.278c0-.153-.25-.278-.556-.278-.307 0-.557-.126-.557-.279 0-.153-.306-.278-.68-.278-.373 0-.756-.125-.851-.278-.095-.153-.415-.279-.712-.279s-.541-.125-.541-.278c0-.153-.243-.278-.54-.278-.297 0-.618-.126-.712-.279-.095-.153-.471-.278-.835-.278-.365 0-.741-.125-.835-.278-.095-.154-.416-.279-.713-.279s-.54-.125-.54-.278c0-.153-.376-.279-.835-.279-.459 0-.835-.139-.835-.31 0-.184-.293-.255-.718-.174-.456.087-.771-.003-.865-.246-.081-.211-.451-.383-.823-.383-.371 0-.985-.202-1.362-.45-.38-.249-.998-.39-1.382-.317-.487.093-.696.01-.696-.276 0-.29-.189-.362-.651-.246a1.517 1.517 0 01-1.183-.239c-.292-.222-.994-.407-1.559-.412-.565-.005-1.105-.134-1.2-.287-.094-.153-.658-.278-1.252-.278s-1.158-.125-1.253-.279c-.094-.153-.828-.278-1.631-.278-.802 0-1.61-.151-1.795-.337-.334-.334-22.892-.584-27.819-.308" fill="#1c0c1c" fill-rule="evenodd"/></svg>